<?xml version="1.0" encoding="utf-8"?>
<!-- Generator: Adobe Illustrator 25.4.1, SVG Export Plug-In . SVG Version: 6.00 Build 0)  -->
<svg version="1.1" id="Layer_1" xmlns="http://www.w3.org/2000/svg" xmlns:xlink="http://www.w3.org/1999/xlink" x="0px" y="0px"
	 viewBox="0 0 207.7 56.8" style="enable-background:new 0 0 207.7 56.8;" xml:space="preserve">
<style type="text/css">
	.st0{fill:#FFFFFF;}
	.st1{enable-background:new    ;}
</style>
<g id="Coat_Of_Arms_Logo" transform="translate(0 0)">
	<g id="Fill_1">
		<path class="st0" d="M29.3,9.5c-0.3,0.6-0.6,1-0.5,1.4c0,0.5,0.5,0.8,0.8,1.3c0.2-0.5,0.6-1,0.5-1.4C30,10.4,29.4,9.8,29.3,9.5"/>
	</g>
	<g id="Fill_3">
		<path class="st0" d="M37.3,9.5c0.3,0.6,0.6,1,0.5,1.4c0,0.5-0.5,0.8-0.8,1.3c-0.2-0.5-0.6-1-0.5-1.4C36.6,10.4,37.2,9.8,37.3,9.5"
			/>
	</g>
	<g id="Fill_5">
		<path class="st0" d="M24.6,9.1c0.3,0,0.5-0.2,0.5-0.5c0-0.3-0.2-0.5-0.5-0.5c-0.3,0-0.5,0.2-0.5,0.5C24.1,8.9,24.3,9.1,24.6,9.1
			C24.6,9.1,24.6,9.1,24.6,9.1"/>
	</g>
	<g id="Fill_7">
		<path class="st0" d="M25,9.9c0-0.3-0.2-0.5-0.5-0.5c-0.3,0-0.5,0.2-0.5,0.5c0,0.3,0.2,0.5,0.5,0.5C24.8,10.5,25,10.2,25,9.9
			C25,9.9,25,9.9,25,9.9"/>
	</g>
	<g id="Fill_9">
		<path class="st0" d="M25.3,11.2c0-0.3-0.2-0.5-0.5-0.5c-0.3,0-0.6,0.2-0.6,0.5c0,0.3,0.2,0.6,0.5,0.6c0,0,0,0,0,0
			C25,11.8,25.3,11.5,25.3,11.2"/>
	</g>
	<g id="Fill_11">
		<path class="st0" d="M27.6,6.5c0.3,0,0.5-0.2,0.5-0.5c0-0.3-0.2-0.5-0.5-0.5S27.1,5.7,27.1,6C27.1,6.3,27.3,6.5,27.6,6.5"/>
	</g>
	<g id="Fill_13">
		<path class="st0" d="M26.3,7c0.3,0,0.5-0.2,0.5-0.5c0-0.3-0.2-0.5-0.5-0.5c-0.3,0-0.5,0.2-0.5,0.5C25.7,6.7,26,7,26.3,7"/>
	</g>
	<g id="Fill_15">
		<path class="st0" d="M25.2,7.9c0.3,0,0.6-0.2,0.6-0.5c0-0.3-0.2-0.6-0.5-0.6c0,0,0,0,0,0c-0.3,0-0.5,0.2-0.5,0.5
			C24.7,7.6,24.9,7.9,25.2,7.9C25.2,7.9,25.2,7.9,25.2,7.9"/>
	</g>
	<g id="Fill_17">
		<path class="st0" d="M29.1,6.7c0.3,0,0.5-0.2,0.5-0.5c0-0.3-0.2-0.5-0.5-0.5c-0.3,0-0.5,0.2-0.5,0.5C28.5,6.4,28.8,6.7,29.1,6.7"
			/>
	</g>
	<g id="Fill_19">
		<path class="st0" d="M30.4,7.1c0.3,0,0.5-0.2,0.5-0.5C31,6.2,30.7,6,30.4,6c-0.3,0-0.5,0.2-0.5,0.5C29.9,6.8,30.1,7.1,30.4,7.1
			C30.4,7.1,30.4,7.1,30.4,7.1"/>
	</g>
	<g id="Fill_21">
		<path class="st0" d="M31.7,7.7c0.3,0,0.5-0.2,0.5-0.5c0-0.3-0.2-0.5-0.5-0.5c0,0,0,0,0,0c-0.3,0-0.5,0.2-0.5,0.5
			C31.1,7.4,31.4,7.7,31.7,7.7"/>
	</g>
	<g id="Fill_23">
		<path class="st0" d="M41.4,8.6c0,0.3,0.2,0.5,0.5,0.5s0.5-0.2,0.5-0.5c0-0.3-0.2-0.5-0.5-0.5C41.6,8,41.4,8.3,41.4,8.6
			C41.4,8.6,41.4,8.6,41.4,8.6"/>
	</g>
	<g id="Fill_25">
		<path class="st0" d="M42.1,9.4c-0.3,0-0.5,0.2-0.5,0.5c0,0,0,0,0,0c0,0.3,0.2,0.5,0.5,0.5c0.3,0,0.5-0.2,0.5-0.5
			C42.6,9.6,42.4,9.4,42.1,9.4C42.1,9.4,42.1,9.4,42.1,9.4"/>
	</g>
	<g id="Fill_27">
		<path class="st0" d="M41.8,10.7c-0.3,0-0.5,0.2-0.5,0.5c0,0.3,0.3,0.5,0.6,0.5c0.3,0,0.5-0.2,0.5-0.5
			C42.4,10.9,42.1,10.7,41.8,10.7"/>
	</g>
	<g id="Fill_29">
		<path class="st0" d="M38.9,6.5c0.3,0,0.5-0.2,0.5-0.5c0-0.3-0.2-0.5-0.5-0.5c0,0,0,0,0,0c-0.3,0-0.5,0.2-0.5,0.5c0,0,0,0,0,0
			C38.4,6.3,38.6,6.5,38.9,6.5"/>
	</g>
	<g id="Fill_31">
		<path class="st0" d="M40.3,7c0.3,0,0.5-0.2,0.5-0.5s-0.2-0.5-0.5-0.5c-0.3,0-0.5,0.2-0.5,0.5C39.7,6.7,40,7,40.3,7"/>
	</g>
	<g id="Fill_33">
		<path class="st0" d="M41.3,7.9c0.3,0,0.5-0.2,0.5-0.5c0-0.3-0.2-0.5-0.5-0.5c-0.3,0-0.5,0.2-0.5,0.5C40.8,7.6,41,7.9,41.3,7.9
			C41.3,7.9,41.3,7.9,41.3,7.9"/>
	</g>
	<g id="Fill_35">
		<path class="st0" d="M37.5,6.7c0.3,0,0.5-0.2,0.5-0.5s-0.2-0.5-0.5-0.5c-0.3,0-0.5,0.2-0.5,0.5C36.9,6.4,37.2,6.7,37.5,6.7
			C37.5,6.7,37.5,6.7,37.5,6.7"/>
	</g>
	<g id="Fill_37">
		<path class="st0" d="M36.1,7.1c0.3,0,0.5-0.2,0.5-0.5S36.4,6,36.1,6c-0.3,0-0.5,0.2-0.5,0.5C35.6,6.8,35.8,7.1,36.1,7.1"/>
	</g>
	<g id="Fill_39">
		<path class="st0" d="M34.3,7.1c0,0.3,0.2,0.5,0.5,0.5s0.5-0.2,0.5-0.5s-0.2-0.5-0.5-0.5c0,0,0,0,0,0C34.6,6.6,34.3,6.8,34.3,7.1"
			/>
	</g>
	<g id="Fill_41">
		<path class="st0" d="M32.3,10.1H33V7.7c-0.2,0-0.4-0.1-0.6-0.2V10.1z"/>
	</g>
	<g id="Fill_43">
		<path class="st0" d="M34.2,7.5c-0.2,0.1-0.4,0.2-0.6,0.2v2.3h0.6V7.5z"/>
	</g>
	<g id="Fill_45">
		<path class="st0" d="M32.9,5V3.6c-0.7,0.1-1.2,0.7-1.3,1.4H32.9z"/>
	</g>
	<g id="Fill_47">
		<path class="st0" d="M33.6,5H35c-0.1-0.7-0.6-1.2-1.3-1.4V5z"/>
	</g>
	<g id="Fill_49">
		<path class="st0" d="M31.6,5.6C31.8,6.4,32.5,7,33.3,7c0.8,0,1.5-0.6,1.7-1.3H31.6z"/>
	</g>
	<g id="Fill_51">
		<path class="st0" d="M34.2,3.4c-0.4-0.3-0.7-0.7-0.7-1.2c0.5,0.1,0.9,0.4,1.2,0.8V1.1c-0.3,0.4-0.7,0.7-1.2,0.8
			c0.1-0.5,0.4-1,0.7-1.3h-1.8c0.4,0.4,0.6,0.8,0.7,1.3c-0.5-0.1-0.9-0.4-1.2-0.8v1.9c0.3-0.4,0.7-0.7,1.2-0.8
			c-0.1,0.5-0.3,0.9-0.7,1.2H34.2z"/>
	</g>
	<g id="Fill_53">
		<path class="st0" d="M35.1,43.1c-1.2,0-2.4-0.2-3.5-0.5c-1-0.3-2.1-0.7-3-1.2c-0.2,0.2-0.5,0.3-0.8,0.3c-0.2,0-0.4,0-0.6-0.1
			c-0.5-0.3-0.9-0.7-0.9-1.3c0,0,0-0.1,0-0.2c0,0,0,0,0-0.1c-0.4-0.3-0.8-0.7-1.1-1.1c-1.1-1.2-1.9-2.6-2.4-4.1
			c-0.3-0.7-0.5-1.5-0.6-2.2c0.2,0.1,0.5,0.1,0.7,0.1c0.4,0,0.7-0.2,0.9-0.4c0.1,0,0.1,0.3,0.1,0.4c0.8,0,1.6-0.5,1.8-1.3
			c0.1,0.7,0.3,1.3,0.5,1.9c0.4,1.1,0.9,2.1,1.7,2.9c0.2,0.3,0.5,0.6,0.8,0.8c0.2-0.1,0.3-0.1,0.5-0.1c0.4,0,0.8,0.2,1.1,0.5
			c0.3,0.3,0.4,0.7,0.4,1.2v0c1.8,0.8,3.7,1.5,5.6,2c0.9,0.2,1.8,0.4,2.7,0.4c0.2,0,0.3,0,0.5,0c0,0-0.1,0.1-0.1,0.1
			c-0.4,0.3-0.7,0.6-1.1,0.9C37.2,42.7,36.2,43.1,35.1,43.1z M34.3,41c-0.4,0-0.7,0.3-0.7,0.7c0,0.4,0.3,0.7,0.7,0.7
			c0.4,0,0.7-0.3,0.7-0.7C34.9,41.3,34.6,41,34.3,41C34.3,41,34.3,41,34.3,41L34.3,41z M26.8,38.2c0.1,0.2,0.2,0.3,0.2,0.5l0,0.1
			l-0.1,0.1c-0.3,0.4-0.5,0.9-0.5,1.4c0.1,0.4,0.4,0.8,0.8,1c0.1,0.1,0.3,0.1,0.4,0.1c0.2,0,0.4-0.1,0.5-0.1
			c-0.2-0.1-0.4-0.2-0.5-0.3l-0.1-0.1c-0.2-0.1-0.3-0.2-0.3-0.4c0,0,0-0.1,0-0.1c0-0.2,0.1-0.4,0.2-0.6c0,0,0-0.1,0.1-0.1l0,0
			c0,0,0,0,0,0l0,0c0,0,0-0.1,0.1-0.1l0.1-0.1l0.1,0.1c0.2,0.1,0.4,0.2,0.6,0.2c0,0,0.1,0,0.1,0c0.1,0,0.1-0.1,0.2-0.1
			c0.1-0.2,0-0.5-0.3-0.8l-0.1-0.1l0.2-0.2c0.1-0.1,0.3-0.3,0.4-0.4c0.1-0.1,0.3-0.2,0.4-0.2c0.2,0,0.3,0.1,0.5,0.2l0.2,0.1l0.1,0.1
			h0c0.1,0.1,0.1,0.1,0.2,0.1c0-0.2-0.1-0.5-0.3-0.7c-0.2-0.3-0.5-0.4-0.8-0.4c-0.7,0-1.5,0.9-1.6,1l-0.1,0.1l-0.1,0
			C27.2,38.2,27,38.2,26.8,38.2z M31.1,39.9c-0.4,0-0.7,0.3-0.7,0.7c0,0.4,0.3,0.7,0.7,0.7c0.4,0,0.7-0.3,0.7-0.7c0,0,0,0,0,0
			C31.8,40.2,31.5,39.9,31.1,39.9C31.1,39.9,31.1,39.9,31.1,39.9z"/>
	</g>
	<g id="Fill_55">
		<path class="st0" d="M33.3,50.6c-0.4,0-0.8-0.4-0.8-0.8c0-0.1,0-0.2,0.1-0.3c-0.7,0-0.8-0.7-1-1.3c-0.1-0.3-0.1-0.6-0.3-0.6
			c-0.2,0-0.3,0.3-0.4,0.6c-0.3-0.4-0.5-0.8-0.6-1.3c0-0.6,0.5-1.2,1.2-1.2c0.1,0,0.2,0,0.4,0.1v-2.5c1,0.3,2,0.4,3,0.5v2
			c0.1,0,0.2-0.1,0.3-0.1c0.6,0,1.2,0.5,1.2,1.2c0,0.5-0.2,1-0.6,1.3c-0.2-0.4-0.3-0.6-0.4-0.6c-0.1,0-0.2,0.2-0.3,0.6
			c-0.1,0.5-0.3,1.2-1,1.3c0,0.1,0,0.2,0,0.3C34.1,50.2,33.7,50.6,33.3,50.6z M33.3,49.3c-0.2,0-0.5,0.2-0.5,0.5
			c0,0.3,0.2,0.5,0.5,0.5c0.3,0,0.5-0.2,0.5-0.5C33.8,49.5,33.6,49.3,33.3,49.3C33.3,49.3,33.3,49.3,33.3,49.3L33.3,49.3z
			 M33.3,47.8c0.2,0,0.3,0.1,0.3,0.3c0,0.1,0,0.2-0.1,0.2l0,0c-0.1,0.1-0.1,0.2-0.1,0.3c0,0.3,0.2,0.5,0.5,0.5c0,0,0,0,0,0
			c0.4,0,0.6-0.5,0.7-1c0.1-0.4,0.2-0.9,0.6-0.9c0.2,0,0.4,0.2,0.5,0.4c0.1-0.2,0.2-0.5,0.2-0.7c0-0.4-0.4-0.8-0.8-0.8
			c-0.6,0-0.7,0.4-0.8,0.8c-0.1,0.2-0.2,0.5-0.3,0.5c-0.2,0-0.3-0.1-0.3-0.3c0,0,0,0,0,0c0-0.2,0.1-0.4,0.3-0.5
			c0.2-0.2,0.3-0.4,0.4-0.7c0-0.5-0.5-1-1-1.4c-0.5,0.4-1,0.8-1,1.4c0,0.3,0.2,0.5,0.4,0.7c0.1,0.1,0.2,0.3,0.3,0.5
			c0,0.2-0.1,0.3-0.3,0.3c0,0,0,0,0,0c-0.2,0-0.3-0.2-0.3-0.5c-0.1-0.4-0.3-0.8-0.8-0.8c-0.4,0-0.8,0.4-0.8,0.8
			c0,0.3,0.1,0.5,0.2,0.7c0.1-0.2,0.3-0.3,0.5-0.4c0.3,0,0.4,0.4,0.6,0.9c0.1,0.5,0.3,1,0.7,1c0.3,0,0.5-0.2,0.6-0.5c0,0,0,0,0,0
			c0-0.1,0-0.2-0.1-0.3C33,48.3,33,48.2,33,48.1C33,47.9,33.1,47.8,33.3,47.8L33.3,47.8z"/>
	</g>
	<g id="Fill_57">
		<path class="st0" d="M59.2,48.2c0-0.1-0.2-0.2-0.3-0.1c-2.4,0.7-5.4-1.3-8.2-3.2c-2.4-1.6-4.7-3.1-6.7-3.1c-0.7,0-1.3,0.1-1.9,0.5
			c-0.7,0.4-1.2,1-1.5,1.8c-0.3,0.6-0.6,1.2-1,1.8c-0.3,0.4-0.5,0.9-0.6,1.4c0,0.4,0.2,0.8,0.5,1.1c0.4,0.3,0.8,0.6,1.3,0.9
			c0.1,0.1,0.2,0.1,0.4,0.2c0.5,0.2,0.8,0.4,0.8,0.7c-1.1,0.5-2.3,0.8-3.6,1c-1.7,0.3-3.4,0.4-5.1,0.4c-1.7,0-3.4-0.1-5.1-0.4
			c-1.2-0.2-2.4-0.5-3.6-1c0-0.4,0.3-0.6,0.9-0.8c0.1-0.1,0.2-0.1,0.4-0.2c0.4-0.2,0.9-0.5,1.2-0.8c0.3-0.2,0.5-0.6,0.5-1
			c-0.1-0.5-0.2-1-0.6-1.4c-0.4-0.6-0.7-1.2-1-1.8c-0.3-0.7-0.8-1.4-1.5-1.8c-0.6-0.3-1.2-0.5-1.9-0.5c-2,0-4.3,1.5-6.7,3.1
			c-2.9,1.9-5.8,3.9-8.2,3.2c-0.1,0-0.2,0-0.3,0.1c0,0.1,0,0.2,0.1,0.3c0.7,0.4,1.4,0.8,2,1.3c0.7,0.7,1.6,1.2,2.6,1.3
			c1,0,2-0.3,2.9-0.8c1-0.6,2-1.2,2.9-1.8c1.9-1.3,3.9-2.6,5.7-2.8c-0.2,0.2-0.4,0.4-0.6,0.5c-0.6,0.4-1,1-1,1.8
			c0,0.6,0.2,1.3,0.6,1.8c0.1,0.2,0.2,0.4,0.3,0.7c0.2,0.4,0.3,0.9,0.4,1.3c0,0.2,0.1,0.5,0.2,0.8c0.2,0.9,0.8,1.6,1.7,2
			c1.6,0.8,4.3,1.2,8.1,1.2c3.8,0,6.5-0.4,8.1-1.2c0.9-0.3,1.5-1.1,1.7-2c0.1-0.3,0.1-0.5,0.2-0.8c0.1-0.5,0.2-0.9,0.4-1.3
			c0.2-0.3,0.3-0.6,0.4-0.9c0.3-0.5,0.5-1,0.5-1.6c-0.1-0.7-0.5-1.4-1.1-1.8c-0.2-0.2-0.4-0.3-0.6-0.5c1.9,0.1,3.8,1.5,5.7,2.8
			c0.9,0.7,1.9,1.3,2.9,1.8c0.9,0.5,1.9,0.8,2.9,0.9c1-0.1,1.9-0.6,2.6-1.3c0.6-0.5,1.3-0.9,2-1.3C59.2,48.5,59.2,48.3,59.2,48.2"/>
	</g>
	<g id="Fill_59">
		<path class="st0" d="M39.2,40.6L39.2,40.6c-0.9-0.1-1.9-0.2-2.8-0.5c-0.3-0.1-0.4-0.1-0.7-0.2l-0.2-0.1c0-0.3,0.1-0.5,0.2-0.8
			c0.1-0.2,0.2-0.5,0.4-0.7c0.1,0,0.1-0.1,0.2-0.1c0-0.1,0.1-0.1,0.1-0.1c1-0.5,1.8-1.1,2.5-2c0.7-0.9,1.3-1.8,1.7-2.9
			c0.4-1.1,0.6-2.2,0.6-3.3h-7.5v8.3c0.6,0,1.7,0.1,1.7,0.1c-0.3,0.3-0.4,0.8-0.5,1.2c-0.8-0.2-1.6-0.6-2.6-0.9
			c0.2-0.3,0.5-0.4,0.9-0.4v-8.3h-7.6c0-0.4-0.1-0.7-0.3-1c-0.4-0.4-0.6-0.9-0.5-1.4c-0.1-0.5-0.3-1-0.6-1.3
			c-0.2-0.3-1.1-1.3-1.3-1.5c0.6-1.5,1.4-2.9,2.5-4.1c0.7-0.8,1.5-1.4,2.3-2c-0.5-0.3-0.9-0.8-0.9-1.4c0-0.4,0.2-0.8,0.5-1
			c-0.4-1.5-1.1-2.9-2.1-4.2l1.5-0.7c-0.3,0.5-0.5,1.1-0.3,1.7c0.4-0.3,0.7-0.7,0.9-1.2c0.1,0.6,0.3,1.1,0.6,1.7
			c-0.2-0.1-0.5-0.2-0.8-0.2c-0.2,0-0.3,0-0.5,0.1c0.3,0.4,0.9,0.7,1.4,0.7c0.2,0,0.3,0,0.5-0.1c0.3-0.1,1.1-0.3,1.1-0.9
			c0-0.3-0.2-0.5-0.5-0.5h0c-0.1,0-0.2,0.1-0.2,0.2c-0.1,0.2-0.1,0.4,0,0.6c-0.4-0.3-0.6-0.8-0.6-1.3c0-0.2,0.1-0.4,0.3-0.4
			c0,0,0.1,0,0.1,0c0.5,0,0.9,0.7,1.1,1.2c0.1-0.4,0.3-1.3,0.9-1.3h0c0.2,0,0.3,0.1,0.4,0.3c0.1,0.5,0.1,1-0.2,1.4
			c0-0.4-0.3-0.7-0.5-0.7h0c-0.1,0-0.4,0.1-0.4,0.6c0,0.4,0.6,0.7,1.3,0.7c0.9,0.1,1.8-0.5,1.9-1.5c-0.5,0.1-1,0.4-1.3,0.8
			c0.1-0.7,0.1-1.4,0-2.1c0.3,0.4,0.8,0.7,1.3,0.8c-0.2-0.6-0.6-1.1-1.1-1.4h2.8c-0.5,0.3-0.9,0.8-1.1,1.4c0.5-0.1,1-0.4,1.3-0.8
			c-0.1,0.7-0.1,1.4,0,2.1c-0.3-0.4-0.8-0.7-1.4-0.8c0.1,0.9,1,1.6,1.9,1.5c0.7,0,1.3-0.3,1.3-0.7c0-0.1,0-0.3-0.1-0.4
			c-0.1-0.1-0.2-0.1-0.3-0.2h0c-0.2,0-0.4,0.2-0.5,0.7c-0.2-0.4-0.3-0.9-0.2-1.4c0.1-0.2,0.2-0.3,0.4-0.3h0c0.6,0,0.8,0.9,0.9,1.3
			c0.2-0.6,0.6-1.2,1.1-1.2c0,0,0.1,0,0.1,0c0.2,0.1,0.3,0.2,0.3,0.4c0,0.5-0.2,1-0.6,1.3c0.1-0.2,0.1-0.4,0-0.6
			c0-0.1-0.1-0.2-0.2-0.2h0c-0.3,0-0.5,0.2-0.5,0.5c0,0.5,0.8,0.8,1.1,0.9c0.2,0,0.3,0.1,0.5,0.1c0.6,0,1.1-0.3,1.4-0.7
			c-0.1-0.1-0.3-0.1-0.5-0.1c-0.3,0-0.5,0.1-0.8,0.2c0.3-0.5,0.4-1.1,0.6-1.7c0.1,0.5,0.4,0.9,0.9,1.2c0.1-0.6,0-1.2-0.3-1.7
			l1.5,0.6c-0.9,1.3-1.6,2.7-2.1,4.2c0.3,0.2,0.5,0.6,0.5,1c0,0.6-0.4,1.2-0.9,1.4c0.9,0.6,1.6,1.2,2.3,2c0.6,0.6,1,1.3,1.4,2
			c-0.1,0.1-0.2,0.2-0.2,0.3c-0.1,0.1-0.2,0.2-0.3,0.3c-0.1,0.1-0.1,0.1-0.2,0.2C42.1,23.6,42,23.8,42,24c0,0.2,0.1,0.5,0.2,0.7
			c0.2,0.3,1.4,2.6,1.7,3.2c0.2,0.4,0.5,0.8,0.9,1.1c0,0.2,0,0.3,0,0.5c0,0.1,0,0.1,0,0.2c0,1.7-0.3,3.4-0.9,5
			c-0.6,1.5-1.4,2.9-2.5,4.1c-0.5,0.6-1.1,1.1-1.7,1.5l0,0C39.6,40.6,39.4,40.6,39.2,40.6z M33.6,20.6v9h7.5c0-1.2-0.2-2.3-0.6-3.4
			c-0.4-1.1-0.9-2.1-1.7-2.9c-0.7-0.8-1.5-1.5-2.5-2C35.5,20.9,34.5,20.7,33.6,20.6L33.6,20.6z M33.2,20.6c-1,0-2,0.3-2.9,0.7
			c-1,0.5-1.8,1.1-2.5,2c-0.7,0.9-1.3,1.8-1.7,2.9c-0.4,1.1-0.6,2.3-0.6,3.4h7.7L33.2,20.6z M33.3,16.9c1.9-0.1,3.7,0.4,5.3,1.4
			c0.6-0.3,0.9-0.7,0.9-1.1c0-0.6-0.8-1.1-2.3-1.3c-1.3-0.2-2.6-0.3-3.9-0.2l0,0c-1.3,0-2.6,0.1-3.9,0.2c-1.5,0.3-2.3,0.7-2.3,1.3
			c0,0.4,0.3,0.8,0.8,1.1C29.6,17.3,31.4,16.8,33.3,16.9L33.3,16.9z"/>
	</g>
	<g id="Fill_61">
		<path class="st0" d="M37,29.2L37,29.2c-0.1-0.1-0.2-0.3-0.1-0.5h-2.2c0,0,0,0.1,0,0.1c0,0,0.1,0,0.1,0c0.1,0,0.1,0,0.1-0.1
			c0,0.2-0.1,0.3-0.3,0.3c0,0,0,0,0,0c0,0,0,0-0.1,0c-0.1,0-0.1-0.1-0.1-0.2c-0.1,0.1-0.2,0.1-0.3,0.1c0-0.1,0-0.2,0.1-0.3
			c0,0,0,0,0,0c-0.1,0-0.2,0-0.2-0.1c0-0.1,0-0.1,0-0.2c0.1-0.1,0.2-0.1,0.3-0.1c-0.1,0-0.1,0.1-0.1,0.2c0,0.1,0.1,0.1,0.1,0.1h0
			v-3.2c0,0-0.1,0-0.1,0c-0.1,0-0.3-0.1-0.4-0.2C34,25,34.1,25,34.3,25c0.1,0,0.1,0,0.1,0v-2.9h0c-0.1,0-0.1,0-0.1,0.1
			c0,0.1,0,0.1,0.1,0.2c-0.1,0-0.2-0.1-0.2-0.1c0-0.1,0-0.1,0-0.2c0-0.1,0.1-0.1,0.2-0.1c-0.1-0.1-0.1-0.2-0.1-0.4
			c0.1,0,0.3,0.1,0.3,0.2c0-0.1,0.1-0.2,0.1-0.2c0,0,0,0,0.1,0c0.1,0,0.1,0,0.2,0.1c0.1,0.1,0.1,0.2,0.1,0.2c0-0.1-0.1-0.1-0.1-0.1
			c-0.1,0-0.1,0.1-0.1,0.1c0,0,0,0,0,0c0.6,0.2,1.3,0.5,1.8,0.8c0.6,0.4,1.2,0.9,1.6,1.5c0.1,0.1,0.1,0.1,0.2,0.2
			c0.1-0.1,0.2-0.2,0.4-0.2c0,0,0,0,0.1,0c0,0.2-0.1,0.3-0.3,0.4c0,0,0,0,0,0c0,0,0,0,0,0c0.8,1.1,1.3,2.4,1.4,3.8h0
			c0.1,0,0.1,0,0.1-0.1c0-0.1,0-0.1-0.1-0.2h0c0.1,0,0.2,0,0.3,0.1c0,0.1,0,0.1,0,0.2c0,0.1-0.1,0.1-0.2,0.1h0
			c0.1,0.1,0.1,0.2,0.1,0.3c-0.1,0-0.2,0-0.3-0.1c0,0.1,0,0.2-0.1,0.2c0,0,0,0-0.1,0c-0.1,0-0.3-0.1-0.3-0.3c0,0,0.1,0.1,0.1,0.1
			c0,0,0.1,0,0.1,0c0,0,0-0.1,0-0.1h-2.5C37.2,28.9,37.1,29,37,29.2L37,29.2z M37.3,28.2C37.4,28.2,37.4,28.2,37.3,28.2
			c0.2,0.1,0.2,0.2,0.2,0.3h1.9c-0.1-0.1-0.2-0.2-0.2-0.4c0.1,0,0.2,0,0.3,0.1c-0.2-1.1-0.5-2.1-1.1-3c0,0-0.1,0-0.1,0
			c0,0-0.1,0-0.1,0c-0.1-0.1-0.1-0.2-0.1-0.2c-0.1,0-0.2,0.1-0.3,0.1c0,0,0,0-0.1,0c0-0.1,0.1-0.2,0.2-0.3c-0.1,0-0.2-0.1-0.2-0.2
			c0-0.1,0-0.2,0.1-0.2c-0.4-0.5-0.9-1-1.5-1.4c-0.4-0.3-0.9-0.5-1.4-0.7c0.1,0.1,0.1,0.2,0.1,0.3c-0.1,0-0.2,0-0.3-0.1v2.2
			c0,0,0,0,0,0c0.1,0,0.2,0,0.2,0.1c0,0.1,0,0.2-0.1,0.3c0.1,0,0.2,0.1,0.3,0.1c-0.1,0.1-0.2,0.2-0.3,0.2c0.1,0.1,0.1,0.2,0.1,0.2
			c0,0.1-0.1,0.1-0.2,0.1c0,0,0,0,0,0v2.6c0.1-0.1,0.2-0.1,0.3-0.1c0,0.1,0,0.2-0.1,0.3h1.6c0-0.1,0-0.2,0.1-0.3c0,0,0,0,0.1,0
			c0.1,0,0.1,0,0.2,0.1c0-0.1,0.1-0.2,0.1-0.3c0.1,0.1,0.1,0.2,0.1,0.3C37.2,28.2,37.3,28.2,37.3,28.2L37.3,28.2z"/>
	</g>
	<g id="Fill_63">
		<path class="st0" d="M38.6,27.3c0.1,0,0.2-0.1,0.2-0.2c-0.1,0-0.1,0-0.2,0c0.1-0.1,0.2,0,0.1-0.1s-0.1-0.1-0.2,0
			c-0.3,0.1-0.6-0.1-0.7-0.4c0,0,0-0.1,0-0.1c0,0.1,0.1,0.1,0.2,0.2c0,0,0,0,0.1,0c0,0,0.1,0,0.1,0c0.1,0,0.1,0,0.2,0c0,0,0,0,0,0v0
			c0.1,0,0.2-0.1,0.2-0.2c0-0.2-0.2-0.4-0.5-0.6c-0.1-0.1-0.2-0.1-0.2-0.2c0-0.2-0.1-0.5-0.2-0.7c0-0.1,0-0.2-0.1-0.3
			c-0.2,0.3-0.1,0.7,0.1,0.9c0.2,0.3,0.8,0.5,0.8,0.8c0,0.1-0.1,0.1-0.1,0.1c0,0-0.1,0-0.1,0c0,0,0,0,0,0c0,0-0.1,0-0.1,0
			c-0.1,0-0.1-0.1-0.2-0.1c-0.2-0.2-0.4-0.4-0.5-0.7c-0.2-0.3-0.2-0.6-0.1-0.9c0.2-0.2-0.1-0.7-0.3-0.8c0-0.1,0-0.2,0-0.3
			c0,0-0.1,0-0.2,0c0-0.1-0.1-0.1-0.1-0.1c-0.1,0-0.1-0.1-0.1-0.1c-0.1,0-0.1,0.1-0.1,0.1c-0.1,0-0.1,0-0.2,0c0,0-0.1,0.1-0.2,0.1
			c-0.1,0-0.1,0.1-0.1,0.1c0,0.1,0,0.1,0.1,0.1c0,0,0,0,0,0l0.1,0.1l0.1-0.1c0,0,0.2-0.1,0.2,0c0,0.1,0,0.1-0.1,0.1
			c-0.1,0-0.1,0-0.2,0c-0.1,0-0.1,0.1,0,0.1s0.1,0.1,0.2,0.1s0.3,0,0.3,0.1c0,0.3-0.3,0.3-0.4,0.6c-0.1,0-0.1-0.1-0.2-0.2
			c-0.1-0.1-0.1-0.2-0.2-0.3c-0.1-0.1-0.1-0.1-0.2-0.2c-0.1-0.1-0.1-0.1-0.1-0.2c0-0.1,0-0.2,0-0.3c0,0,0-0.1,0-0.1
			c0-0.1-0.1-0.1-0.1-0.1c0,0,0,0.1,0.1,0.1c0,0,0,0,0,0.1c0,0,0,0.1,0,0.1c0,0,0,0,0,0c0,0,0,0,0,0c0,0,0,0,0,0c0,0,0,0,0,0
			c0-0.1-0.1-0.2-0.1-0.2h0c0,0,0,0,0,0c0-0.1-0.1-0.1-0.2,0c0,0,0.1,0,0.1,0c0,0,0,0,0,0.1c0,0.1,0,0.1,0.1,0.1c0,0,0,0,0,0
			c0,0,0,0,0,0c0,0,0,0,0,0c-0.1,0-0.2,0-0.2,0.1c0,0,0,0,0,0c0,0,0,0.1,0,0.1c0,0,0-0.1,0-0.1c0,0,0,0,0,0c0,0,0,0,0,0s0,0,0.1,0
			c0,0,0,0,0,0l0,0c0,0,0,0,0,0c-0.1,0.1-0.1,0.1,0,0.2c0,0.1-0.2,0.1-0.2-0.1c-0.1,0.2,0.1,0.3,0.2,0.2c0,0.1,0,0.2,0,0.2
			c0,0,0,0,0,0s0,0,0,0c0,0,0,0.1,0.1,0.1c0,0,0,0,0,0c0,0,0,0.1,0.1,0.1c0.1,0.2,0.3,0.4,0.5,0.6c-0.1,0.1-0.3,0.2-0.4,0.3
			c-0.1,0.1-0.2,0.2-0.3,0.1c0,0,0-0.1-0.1-0.1c0,0-0.1,0-0.1,0c0,0,0,0,0,0c-0.1,0-0.1,0-0.2,0.1c0,0,0.1,0,0.1,0c0,0,0,0.1,0,0.1
			c0,0,0,0.1,0.2,0.1c0,0,0,0,0,0c0,0-0.1,0-0.1,0c-0.1,0-0.1-0.1-0.2,0c0,0,0,0,0,0h0c-0.1,0-0.1,0.1,0,0.2c0,0,0-0.1,0-0.1l0,0
			c0,0.1,0.1,0.1,0.2-0.1c0,0,0,0,0,0c0,0.1-0.1,0.2,0,0.2c0,0,0,0,0,0v0c0,0.1,0.1,0.1,0.2,0.1c0,0,0,0,0,0c0,0-0.1-0.1-0.1-0.1
			h0.1c0.1-0.1,0-0.1,0-0.2c0,0,0,0,0,0c0,0.1,0.1,0.1,0.1,0.1c0,0,0,0,0,0c0,0,0.1-0.1,0.1-0.1C35.8,26,35.9,26,36,26
			c0-0.1,0.1-0.1,0.2-0.2c0.1,0,0.2,0,0.2,0c0-0.1,0.1-0.1,0.1-0.2c0,0.5,0.6,0.5,0.8,0.7c-0.2-0.1-0.3-0.1-0.5-0.1
			c-0.2,0-0.4,0.2-0.5,0.3c0,0.2,0.1,0.4,0.3,0.5c-0.2,0-0.2,0-0.4,0h0C36,27.2,36,27,35.8,27c0,0,0,0,0,0c-0.1,0-0.2,0.1-0.1,0.2
			c0,0,0.1-0.1,0.1-0.1v0c0,0,0,0.1,0.1,0.1c0,0,0,0,0.1,0c0,0,0,0,0,0c0,0,0,0,0,0c0,0.1-0.2,0-0.2,0.1c0,0,0,0,0,0
			c0,0.1,0,0.1,0.1,0.1c0,0,0,0,0-0.1c0,0,0,0,0,0c0,0,0,0,0,0c0,0,0,0,0,0c0,0,0,0,0,0c0,0,0,0,0,0c0,0,0,0,0,0.1
			c0,0.1,0.1,0.1,0.2,0.1c0,0-0.1,0-0.1,0c0,0,0,0,0,0c0,0,0,0,0-0.1c0,0,0,0,0,0h0c0,0,0,0,0,0c0,0,0.1,0.1,0.1,0.1c0,0,0,0,0.1,0
			c0,0,0.1,0,0.1,0c0-0.1,0-0.1,0.2,0l0.1-0.1c0,0,0.1,0.1,0.2,0c0.1-0.1,0-0.1,0-0.2c-0.1-0.1-0.1-0.1-0.1-0.3
			c0-0.2,0.3-0.4,0.5-0.3c0.1,0.3,0.3,0.5,0.6,0.7c0.2,0.1,0.3-0.2,0.4-0.1c0,0,0,0,0,0.1c0,0.1,0,0.2,0,0.3c0,0.1-0.1,0-0.2,0
			c0,0-0.1,0-0.1,0c-0.1,0-0.1,0.1-0.1,0.1c0,0,0.1-0.1,0.1-0.1c0,0,0,0,0,0c0,0.1,0,0.1,0.1,0.1c0,0,0.1,0,0.1,0c0,0,0,0,0,0
			c0,0-0.2,0.1-0.1,0.2c0,0,0,0,0,0c0,0.1,0,0.1,0.1,0.1c0,0,0,0,0-0.1c0,0,0,0,0,0c0.1,0,0-0.1,0.1-0.1c0,0,0,0,0,0
			c0,0.1,0,0.1,0,0.2c0,0,0,0,0.1,0c0,0,0.1,0.1,0.2,0c0,0-0.1,0-0.1,0c0,0,0,0,0-0.1c0-0.1-0.1-0.1-0.1-0.2c0-0.1,0.1,0,0.1-0.2
			c0,0,0,0,0,0c0.1,0,0.1-0.1,0.1-0.1C38.7,27.4,38.7,27.4,38.6,27.3L38.6,27.3z"/>
	</g>
	<g id="Fill_65">
		<path class="st0" d="M31.1,37.3c-0.3,0-0.5-0.2-0.5-0.5c0,0,0,0,0,0c0-0.2,0.2-0.4,0.4-0.4c0,0,0,0,0,0c0.1,0,0.1,0,0.2,0.1
			c0,0,0,0.1,0,0.1c0,0.1-0.1,0.1-0.1,0.1c-0.1,0-0.2,0-0.2,0.1c0,0.1,0.1,0.2,0.2,0.2c0.2,0,0.3-0.1,0.3-0.2c0,0,0-0.1,0-0.1
			c0-0.3-0.3-0.4-0.4-0.4c-0.1,0-0.2,0-0.3,0c-2.1-0.6-3.5-2.5-3.4-4.7c0,0-0.1,0-0.1,0l-0.1,0l0.1-0.3c-0.1,0.1-0.1,0.1-0.2,0.1
			c-0.2,0-0.3-0.1-0.3-0.3c0-0.2,0.1-0.3,0.3-0.3c0.2,0,0.3,0.1,0.3,0.3v0l0.1-0.3c0.4,0.3,0.9,0.4,1.5,0.5c0.6,0,1.2-0.1,1.8-0.4
			c0.2-0.1,0.4-0.1,0.7-0.2c0.2,0,0.4,0.1,0.5,0.2c0.1,0.2,0.2,0.4,0.2,0.6l0,0.1l0.1,0c0.1,0,0.2,0.1,0.2,0.2c0,0,0,0,0,0
			c0,0.1-0.1,0.2-0.2,0.2c0,0,0,0,0,0h0h-0.1l-0.1,4l0.1,0l0,0.4c0,0.1-0.2,0.1-0.3,0.1c0,0.2,0,0.4-0.1,0.5
			C31.6,37.2,31.4,37.3,31.1,37.3z M28.1,31.9c-0.1,0.9,0.2,1.9,0.8,2.6c0.5,0.6,1.2,1.1,2,1.4L28.1,31.9z M28.5,31.8l2.5,3.7
			c0-0.2,0.1-0.4,0.1-0.6v0l0-0.2l-2-2.9c-0.1,0-0.3,0-0.4,0C28.6,31.8,28.5,31.8,28.5,31.8z M30,31.6L30,31.6
			c-0.2,0.1-0.4,0.1-0.6,0.2l1.8,2.6c0.1-0.3,0.1-0.6,0.1-0.8L30,31.6z M31.5,31c-0.3,0-0.5,0.1-0.8,0.3l0,0
			c-0.1,0.1-0.2,0.1-0.4,0.2l1.1,1.6l0-0.3v0c0.1-0.3,0.1-0.6,0.1-0.7l0-0.1h-0.1c-0.1,0-0.1,0-0.2-0.1c-0.1-0.1-0.1-0.2,0-0.3
			c0.1,0,0.1-0.1,0.2-0.1h0l0.1,0c0-0.2,0-0.4,0-0.4C31.6,31.1,31.5,31,31.5,31z"/>
	</g>
	<g id="Fill_67">
		<path class="st0" d="M28.8,24.3L28.8,24.3c0,0-0.1,0-0.1-0.1c0,0,0-0.1,0-0.1v0c0,0,0,0,0,0c0,0,0,0,0,0c0,0,0-0.1,0-0.1
			c0,0,0,0,0,0l0,0l0,0l0,0c0,0,0,0,0,0c0,0-0.1,0-0.1,0.1c0,0-0.1,0-0.1-0.1c0,0,0,0,0,0c0,0,0,0-0.1,0l0,0c0,0,0,0,0-0.1
			c0,0,0.1-0.1,0.1-0.1c0,0,0,0,0,0c0,0,0,0,0,0c0,0,0,0,0,0c0,0,0,0,0,0c0,0,0,0,0,0c0,0,0,0,0,0c0,0,0,0,0,0c0,0,0,0,0,0
			c0,0,0,0,0,0c0,0,0,0,0,0v0c-0.1,0-0.1-0.1-0.1-0.1c0,0,0,0,0,0c0,0,0,0,0,0c0,0,0,0-0.1,0c0,0,0,0,0.1,0c0,0,0.1,0,0.1,0h0.1
			c0,0,0.1,0,0.1,0c0,0,0,0,0,0.1c0,0,0,0,0,0c0,0,0.1,0,0.1,0c0.1,0,0.2,0,0.3-0.1c0,0,0.1,0,0.1,0c0,0,0.1,0,0.1,0h0
			c0.1,0,0.2-0.1,0.3-0.1c0,0-0.1-0.1-0.1-0.1c0,0,0-0.1,0-0.1c0,0,0,0,0,0c0,0,0,0,0,0c0,0,0,0,0,0c0,0,0,0,0-0.1c0,0,0,0,0,0
			c0,0,0,0,0,0c0,0,0,0,0,0c0,0,0,0,0,0c0,0,0,0,0,0s0,0,0,0c0,0-0.1,0-0.1,0c-0.1,0-0.1,0-0.1-0.1c0,0,0-0.1,0-0.1c0,0,0,0.1,0,0.1
			c0,0,0,0,0.1,0c0,0,0.1,0,0.1-0.1c0,0,0,0,0,0h0c0,0-0.1,0-0.1-0.1c0,0,0-0.1,0.1-0.1c0,0,0,0,0,0l0,0c0,0,0,0,0,0c0,0,0,0,0,0
			c0,0,0,0,0,0c0,0,0,0-0.1,0c0,0,0,0,0,0c0,0,0,0,0,0c0,0,0,0,0,0c0,0,0,0,0,0.1c0,0,0,0,0-0.1c0,0,0,0,0-0.1c0,0,0,0,0,0
			c0,0,0.1-0.1,0.1-0.1c0,0,0.1,0,0.1,0h0l0,0c0,0,0,0,0,0c0,0,0,0,0,0c0,0-0.1,0-0.1,0c0,0,0,0,0,0v0c0,0,0,0,0,0c0,0,0,0-0.1,0
			c0,0,0.1,0,0.1,0c0,0,0,0,0,0c0,0,0,0,0,0v0h0c0,0,0.1,0.1,0.1,0.1l0,0l0,0c0,0,0,0,0,0v0c0,0,0,0,0,0c0,0,0,0,0,0c0,0,0,0,0,0
			c0,0,0,0,0-0.1c0,0,0,0,0,0c0,0,0,0,0,0c0,0,0,0,0-0.1l0,0h0c0,0,0.1,0,0.1,0.1c0,0,0,0,0,0.1c0,0,0,0.1,0,0.1c0,0,0,0.1,0,0.1
			c0,0.1,0,0.1,0.1,0.2c0,0,0.1,0.1,0.1,0.1c0-0.1,0-0.2,0.1-0.3c0,0,0,0,0,0l0,0c0,0,0.1-0.1,0.1-0.1c0,0,0-0.1,0-0.1
			c0,0,0,0-0.1-0.1h0c0,0,0.1,0,0.1-0.1c0,0,0.1-0.1,0.1-0.1c0-0.1,0-0.1,0-0.2c0,0,0.1,0,0.1,0c0,0,0,0,0.1,0h0c0,0,0,0,0.1,0
			c0,0,0,0,0,0c0,0,0.1,0,0.1,0c0.1,0,0.1,0.1,0.1,0.1c0,0,0,0,0,0.1c0,0,0,0,0,0c0,0,0,0.1,0,0.1c0,0,0.1,0,0.1,0.1
			c0,0.1,0,0.1-0.1,0.1c0,0.1,0,0.1-0.1,0.2c0,0-0.1,0.1-0.1,0.1c0.1,0,0.3,0,0.4-0.1c0.1,0,0.3,0,0.4,0.1c0.1,0,0.2,0,0.3,0.1
			c0.4,0,0.7-0.1,0.7-0.2c0-0.2-0.3-0.2-0.7-0.2c-0.4,0-0.8-0.1-0.8-0.4c0-0.1,0.1-0.2,0.2-0.2c0,0,0-0.1,0-0.1
			c0.1-0.1,0.2-0.2,0.3-0.2c0.1,0,0.2-0.1,0.3-0.2c0,0.1-0.1,0.3-0.2,0.3c0.1,0,0.2-0.1,0.3-0.2c0.1-0.2,0.4-0.3,0.6-0.3
			c0,0,0.1,0,0.1,0c-0.2,0-0.4,0.2-0.5,0.3c-0.2,0.2-0.5,0.4-0.8,0.4h0c-0.1,0-0.1,0.1-0.1,0.2c0,0.2,0.3,0.2,0.6,0.2
			c0.4,0,0.9,0.1,0.9,0.4c0,0.2-0.3,0.3-0.8,0.3c0,0,0,0,0,0c0,0,0,0,0,0c0.1,0,0.2,0,0.3,0.1c0,0,0.1,0,0.2,0c0,0,0,0,0,0h0
			c0.1,0,0.1,0,0.1,0c0,0,0,0,0,0c0,0,0,0,0,0c0,0,0.1,0,0.1,0c0,0,0,0.1,0,0.1c0,0,0,0,0,0c0,0,0,0,0,0c0,0,0,0.1,0.1,0.1h0
			c0,0,0,0-0.1,0c0,0,0,0,0,0h0c0,0,0,0,0,0.1c0,0,0,0.1-0.1,0.1c0,0,0,0,0,0c0,0,0,0,0,0c0,0,0.1,0.1,0,0.1c0,0,0,0,0,0
			c0,0,0,0,0.1,0c0,0,0,0-0.1,0c0,0-0.1,0-0.1-0.1c0,0,0,0,0,0h0c0,0,0-0.1,0-0.1v0c0,0,0,0,0,0s0,0,0,0c0,0,0,0,0,0.1c0,0,0,0,0,0
			h0c0,0,0,0.1,0,0.1c0,0-0.1,0-0.1-0.1l0,0c0,0,0,0,0,0c0,0,0,0,0,0c0,0,0.1-0.1,0.1-0.1c0,0,0,0,0,0c0,0,0,0,0,0h0c0,0,0,0-0.1,0
			c0,0-0.1,0-0.1-0.1v0c0,0-0.1,0-0.1,0l0,0c0-0.1,0.1-0.1,0.1-0.1c0,0,0,0,0.1,0l0,0c0,0,0.1,0,0.1,0c0,0,0,0,0,0c0,0,0,0,0-0.1
			c0,0,0-0.1,0-0.1c0,0,0,0,0,0c0,0,0,0,0,0l0,0c0,0-0.1,0-0.1,0c0,0-0.1,0-0.1,0c0,0,0,0,0,0c0,0,0,0,0,0s0,0,0,0s0,0-0.1,0
			c-0.1,0-0.2,0-0.3-0.1c0,0,0,0.1,0,0.1c0,0,0,0.1,0,0.1c0.1,0.1,0.1,0.1,0.1,0.2c0,0-0.1,0-0.1,0c0,0-0.1,0-0.1,0c0,0,0,0,0,0
			c0,0,0,0,0,0c0,0,0,0,0,0.1c0,0,0,0.1-0.1,0.1c0,0,0,0,0,0c0,0-0.1,0-0.1,0h0c0,0,0,0,0,0c0,0,0,0,0,0c0,0,0,0,0,0c0,0,0,0,0,0
			l0,0c0,0,0,0,0,0c0,0,0.1,0,0.1,0c0,0,0,0-0.1,0c0,0-0.1,0-0.1,0c0,0,0,0,0,0c0,0,0,0,0,0c0,0,0,0,0,0c0,0,0,0,0,0c0,0,0,0,0,0
			c0,0,0,0,0,0c0,0,0,0,0,0h0c0,0,0,0,0,0c0,0,0,0,0,0c0,0,0,0,0,0c0,0,0,0-0.1,0c0,0,0,0,0-0.1c0,0,0,0,0,0c0,0,0-0.1,0-0.1
			c0,0,0.1,0,0.1,0s0.1,0,0.1,0c0,0,0,0,0,0c0,0,0,0,0,0c0,0,0,0,0,0c0,0,0,0,0,0c0,0,0,0,0,0v0c0,0-0.1,0-0.1,0l0,0
			c0,0,0-0.1,0-0.1c0,0,0.1-0.1,0.1-0.1c0,0,0,0,0,0c0,0,0,0,0,0c0,0,0.1,0,0.1,0.1l0,0c0,0,0.1,0.1,0.1,0.1c0,0,0,0,0,0
			c0,0,0.1,0,0.1,0h0c0,0,0,0,0,0c0,0-0.1-0.1-0.2-0.1c0,0,0,0-0.1,0c0-0.1,0-0.2,0-0.2c0,0-0.1,0.1-0.2,0.1c-0.1,0-0.1,0-0.1,0
			c-0.1,0-0.1,0-0.2,0c0,0,0,0,0,0.1c0,0,0,0.1,0,0.1c0,0-0.1,0-0.1,0c0,0,0,0-0.1,0c-0.1,0.1-0.2,0.1-0.2,0.1h0c0,0,0-0.1,0-0.1v0
			c0,0-0.1,0.1-0.1,0.1h0l0,0c0,0,0,0,0,0c0,0.1-0.1,0.1-0.2,0.1c0,0,0,0,0.1-0.1c0,0,0,0,0,0l0,0h0c0,0-0.1,0-0.1,0.1
			c-0.1,0-0.1,0-0.1,0.2c0,0,0-0.1,0-0.1c0,0,0,0,0,0s0,0,0,0c0,0,0,0,0-0.1l0,0c0,0,0,0,0,0c0,0,0,0,0,0c0,0-0.1,0-0.1,0
			c0,0,0,0-0.1,0c0,0,0,0,0,0c0,0,0,0,0,0c0,0.1-0.1,0.1-0.1,0.1c0,0,0.1-0.1,0-0.1c0,0,0,0-0.1,0.1c0,0,0-0.1,0-0.1c0,0,0,0,0,0
			c0,0.1-0.1,0.1-0.1,0.1h0c-0.1,0-0.1-0.1-0.1-0.1c0,0,0,0,0,0h0c0,0,0,0,0,0.1C28.9,24.2,28.8,24.2,28.8,24.3L28.8,24.3
			c0-0.1,0-0.1,0-0.1C28.8,24.3,28.8,24.3,28.8,24.3L28.8,24.3z M30.3,22.8C30.3,22.8,30.3,22.8,30.3,22.8
			C30.3,22.8,30.3,22.8,30.3,22.8C30.3,22.8,30.3,22.8,30.3,22.8L30.3,22.8c0,0.1,0,0.1,0,0.1c0,0,0,0-0.1,0c0,0,0,0,0,0.1
			c0,0,0,0.1,0,0.1c0,0,0,0,0,0c0,0,0,0,0,0c0,0,0.1,0,0.1-0.1v0v0v0c0,0,0,0,0-0.1c0,0,0,0,0-0.1c0,0,0,0,0,0c0,0,0,0,0,0
			c0,0,0,0,0.1,0c0,0,0,0,0-0.1c0,0,0,0,0,0c0,0,0,0,0,0c0,0,0,0,0,0l0,0c0,0,0,0,0,0c0,0,0,0,0,0c0,0,0,0,0,0L30.3,22.8
			C30.3,22.8,30.3,22.8,30.3,22.8C30.3,22.8,30.3,22.8,30.3,22.8C30.3,22.8,30.3,22.8,30.3,22.8L30.3,22.8
			C30.3,22.8,30.3,22.8,30.3,22.8C30.3,22.8,30.3,22.8,30.3,22.8L30.3,22.8L30.3,22.8C30.3,22.8,30.3,22.8,30.3,22.8z"/>
	</g>
	<g id="Fill_69">
		<path class="st0" d="M27.7,26.8L27.7,26.8c0,0-0.1,0-0.1-0.1c0,0,0-0.1,0-0.1c0,0,0,0,0,0l0,0c0,0,0,0,0,0c0,0,0,0,0,0
			c0,0,0-0.1,0-0.1c0,0,0,0,0-0.1c0,0,0,0,0,0l0,0c0,0,0,0,0,0c0,0-0.1,0.1-0.1,0.1c-0.1,0-0.1,0-0.1-0.1l0,0l0,0c0,0-0.1,0-0.1,0.1
			c0,0,0-0.1,0-0.1c0,0,0.1-0.1,0.1-0.1h0c0,0,0,0,0,0c0,0,0,0,0,0c0,0,0,0,0,0c0,0,0,0,0.1,0c0,0,0,0,0,0c0,0,0,0,0.1,0
			c0,0,0,0,0,0h0c0,0,0,0,0,0c-0.1,0-0.1-0.1-0.2-0.1c0,0,0,0,0,0c0,0,0,0,0,0c0,0,0,0,0,0c0,0,0-0.1-0.1-0.1h0c0,0,0,0,0.1,0
			c0,0,0.1,0,0.1,0h0.1c0,0,0.1,0,0.1,0.1c0,0,0,0.1,0,0.1c0,0,0,0,0,0.1c0,0,0.1,0,0.1,0c0.1,0,0.2,0,0.3-0.1c0.1,0,0.1,0,0.2,0
			h0.1h0c0,0,0,0,0,0c0-0.1,0-0.1,0-0.2c0,0,0,0,0,0c0,0-0.1,0-0.1-0.1c0,0-0.1,0-0.1-0.1c-0.1,0-0.1-0.1-0.2-0.1c0,0,0,0-0.1,0
			c0,0,0,0,0,0c0,0,0,0,0,0c0,0-0.1,0-0.1-0.1c0,0,0,0,0,0c0,0,0,0,0,0c0,0,0,0,0-0.1c0,0,0,0,0,0h0c0,0-0.1,0-0.1,0
			c-0.1,0-0.1,0-0.1-0.1c0-0.1,0-0.1,0-0.2c0,0,0,0.1,0,0.1c0,0,0,0,0.1,0c0.1,0,0.1,0,0.1-0.1c0,0,0,0,0,0c0,0,0,0,0,0c0,0,0,0,0,0
			c0,0-0.1,0-0.1-0.1c0,0,0-0.1,0.1-0.1c0,0,0,0,0,0c0,0,0,0,0,0c0,0,0,0,0,0c0,0,0,0,0,0c0,0,0,0,0,0c0,0,0,0-0.1,0c0,0,0,0,0,0
			c0,0,0,0,0,0l0,0c0,0,0,0,0,0c0,0,0,0.1,0,0.1c0,0,0,0,0-0.1c0,0,0-0.1,0-0.1c0,0,0,0,0,0c0,0,0,0,0,0c0,0,0-0.1,0.1-0.1
			c0,0,0,0,0,0c0,0,0.1,0,0.1,0h0c0,0,0,0,0,0c0,0,0,0,0,0c0,0,0,0,0,0c0,0,0,0,0,0c0,0-0.1,0-0.1,0c0,0,0,0,0-0.1c0,0,0,0,0-0.1
			c0,0,0,0-0.1,0c0,0,0.1,0,0.1,0c0,0,0.1,0,0.1,0.1c0,0,0,0,0,0c0,0,0,0,0,0c0,0,0,0,0,0c0,0,0,0,0,0h0c0.1,0,0.1,0.1,0.1,0.2l0,0
			l0,0c0,0,0,0,0,0c0,0,0,0,0,0l0,0c0,0,0,0,0,0c0,0,0-0.1,0-0.1c0,0,0,0,0,0c0,0,0,0,0,0l0,0c0,0,0-0.1,0-0.1h0
			c0.1,0,0.1,0,0.1,0.1c0,0,0,0.1,0,0.1c0,0,0,0.1,0,0.1c0,0,0,0.1,0,0.1c0,0.1,0,0.2,0.1,0.2c0.1,0,0.1,0.1,0.2,0.2c0,0,0,0,0.1,0
			l0.1,0c0,0,0,0,0,0c0,0,0,0,0,0c0,0,0,0,0,0h0l0.1,0c0-0.1,0-0.1,0-0.2c0,0-0.1,0-0.1-0.1c0,0,0.1-0.1,0.1-0.1c0,0,0-0.1,0-0.1
			c0,0,0,0-0.1-0.1h0c0,0,0.1,0,0.1-0.1c0,0,0.1-0.1,0.1-0.1c0-0.1,0-0.1,0-0.2l0,0c0,0,0.1,0,0.1,0c0,0,0.1,0,0.1,0l0,0
			c0,0,0,0,0.1,0c0,0,0,0,0.1,0c0,0,0.1,0,0.1,0c0.1,0,0.1,0.1,0.1,0.1l0,0c0,0,0,0,0,0c0,0,0,0,0,0l0,0c0,0,0,0.1,0,0.1
			c0.1,0,0.1,0,0.1,0.1c0,0.1-0.1,0.1-0.1,0.1c0.1,0.1,0,0.2-0.1,0.3c0,0,0,0.1,0,0.1c0.2,0,0.4-0.1,0.6-0.1c0.4,0,0.8,0,1.1,0.1
			c0.2,0,0.4,0,0.5,0c0.3,0,0.7,0,0.7-0.2c0-0.1-0.1-0.1-0.5-0.1c-0.1,0-0.3,0-0.4,0c-0.3,0-0.5,0.1-0.8,0.1c-0.2,0-0.3,0-0.5-0.1
			c-0.1,0-0.2-0.1-0.2-0.2c0-0.2,0.2-0.2,0.5-0.2c0.1,0,0.2,0,0.2,0c0,0,0,0,0.1,0c0.1-0.1,0.2-0.1,0.3-0.1c0.1,0,0.2,0,0.2,0h0
			c0.1,0,0.1,0,0.2,0c0.1,0,0.2,0,0.2-0.1c0,0.1-0.1,0.2-0.4,0.2c0.1,0,0.1,0,0.2,0c0.1,0,0.3,0,0.4,0h0c0.1,0,0.2,0,0.4,0
			c0.2,0,0.3,0.1,0.5,0.2c-0.1,0-0.1,0-0.2,0c-0.2,0-0.4,0-0.5,0.1l0,0c-0.2,0-0.4,0.1-0.7,0.1c-0.2,0-0.3,0-0.5-0.1
			c0,0-0.1,0-0.1-0.1c-0.1,0-0.2,0-0.2,0c-0.1,0-0.3,0-0.3,0.1c0,0.1,0.2,0.2,0.5,0.2c0.2,0,0.5,0,0.7,0c0.2,0,0.4,0,0.5,0
			c0.5,0,0.7,0.1,0.7,0.3c0,0.2-0.5,0.3-0.9,0.3c0.1,0,0.2,0,0.3,0c0.1,0,0.2,0,0.2,0c0,0,0.1,0,0.1,0h0c0,0,0.1,0,0.1,0.1v0
			c0,0,0,0,0,0c0,0,0,0,0,0c0,0,0.1,0,0.1-0.1c0,0.1,0,0.1,0,0.1c0,0,0,0,0,0c0,0,0,0,0,0c0,0,0,0.1,0.1,0.1h0c0,0,0,0-0.1,0h0v0
			c0,0,0.1,0,0.1,0.1c0,0.1,0,0.1-0.1,0.1c0,0,0,0,0,0s0,0,0,0c0,0,0.1,0.1,0,0.1c0,0,0,0,0,0.1c0,0,0,0,0.1,0c0,0,0,0-0.1,0
			c0,0-0.1,0-0.1-0.1c0,0,0,0,0,0c-0.1,0,0-0.1,0-0.2c0,0,0,0,0,0l0,0l0,0c0,0,0,0.1,0,0.1c0,0,0,0.1,0,0.1h0c0,0.1,0,0.1,0,0.1
			c-0.1,0-0.1-0.1-0.1-0.1c0,0,0,0,0,0c0,0,0,0,0,0c0,0,0.1-0.1,0.1-0.1c0,0,0,0,0,0c0,0,0,0,0,0c0,0,0,0,0,0c0,0,0,0-0.1,0
			c0,0-0.1,0-0.1-0.1c0,0,0,0,0,0c0,0-0.1,0-0.1,0.1c0-0.1,0.1-0.1,0.1-0.1c0,0,0,0,0.1,0l0.1,0c0,0,0.1,0,0.1,0c0,0,0,0,0.1,0
			c0,0,0,0,0-0.1c0,0,0-0.1,0-0.1c0,0,0-0.1,0-0.1c0,0,0,0,0,0c0,0-0.1,0-0.1,0c-0.1,0-0.1,0-0.2,0l0,0c-0.1,0.1-0.3,0.1-0.4,0.1
			c-0.1,0-0.2,0-0.3-0.1l0,0c0,0,0,0.1,0,0.1c0,0,0,0.1,0,0.1c0.1,0.1,0.1,0.2,0.1,0.3c0,0-0.1,0-0.1,0c0,0-0.1,0-0.1,0h-0.1
			c0,0,0,0,0,0.1c0,0,0,0.1-0.1,0.1c0,0,0,0,0,0c0,0-0.1,0-0.1-0.1c0,0,0,0,0,0c0,0,0,0,0,0c0,0,0,0,0,0c0,0,0,0.1,0,0.1
			c0,0,0,0,0,0c0,0,0.1,0,0.1,0c0,0-0.1,0-0.1,0c0,0-0.1,0-0.1,0c0,0,0,0,0-0.1c0,0,0,0,0-0.1c0,0,0,0,0,0c0,0,0,0,0,0c0,0,0,0,0,0
			s0,0,0,0c0,0,0,0,0,0h0c0,0,0,0.1,0,0.1c0,0,0,0,0,0c0,0-0.1,0-0.1,0c0,0,0,0,0-0.1c0,0,0-0.1,0-0.1c0,0,0.1,0,0.1,0s0.1,0,0.1,0
			c0,0,0,0,0,0c0,0,0,0,0,0c0,0,0,0,0,0c0,0,0,0-0.1,0c0,0,0,0,0,0v0c0,0-0.1,0-0.1,0.1c0,0,0-0.1,0-0.1c0,0,0.1-0.1,0.1-0.1
			c0,0,0,0,0,0c0,0,0,0,0,0c0.1,0,0.1,0,0.1,0.1v0c0,0,0.1,0.1,0.1,0.1c0,0,0,0,0.1,0c0,0,0.1,0,0.1,0l0,0c0,0,0,0,0,0c0,0,0,0,0,0
			c-0.1,0-0.1-0.1-0.2-0.1c0,0-0.1,0-0.1-0.1c0-0.1,0-0.2,0-0.3c-0.1,0-0.1,0.1-0.2,0.1c-0.1,0-0.2,0-0.2,0c-0.1,0-0.3,0-0.3,0.2
			l0,0c-0.1,0.1-0.2,0.1-0.3,0.1h-0.1c0,0-0.1,0-0.1,0l0,0c-0.1,0.2-0.2,0.3-0.4,0.3c0,0,0,0,0,0c0,0,0.1,0,0.1-0.1c0,0,0,0,0,0l0,0
			h0c0,0-0.1,0-0.1,0.1c-0.1,0-0.1,0-0.2,0.2c0,0,0-0.1,0-0.1c0,0,0,0,0,0s0,0,0,0c0,0,0-0.1,0-0.1c0,0,0,0,0,0l0,0c0,0,0,0,0,0
			c0,0-0.1,0-0.1,0c0,0-0.1,0-0.1,0c0,0,0,0,0,0c0,0,0,0,0-0.1c0,0.1-0.1,0.1-0.1,0.2l0,0c0,0,0.1-0.1,0-0.2c0,0,0,0.1-0.1,0.1
			c0,0,0-0.1,0-0.1l0,0c0,0,0,0,0,0c0,0.1-0.1,0.1-0.1,0.1h0c-0.1,0-0.1-0.1-0.1-0.1c0,0,0,0,0,0c0,0,0,0,0,0l0,0c0,0,0,0,0,0
			c0,0,0,0,0,0.1c0,0,0,0.1-0.1,0.1c0,0,0,0,0,0C27.7,26.7,27.7,26.7,27.7,26.8L27.7,26.8z M29,25.1C29,25.1,29,25.1,29,25.1
			C29,25.1,29,25.1,29,25.1C29,25.2,29,25.2,29,25.1L29,25.1c0,0.1,0.1,0.1,0,0.1c0,0,0,0-0.1,0s0,0,0,0l0,0c0,0,0,0.1,0,0.1
			c0,0,0,0,0,0c0,0,0,0,0,0c0,0,0.1,0,0.1-0.1v0c0,0,0-0.1,0-0.1c0,0,0,0,0-0.1c0,0,0,0,0,0c0,0,0,0,0.1,0l0,0c0,0,0-0.1,0-0.1
			c0,0,0,0,0,0c0,0,0,0,0,0c0,0,0,0,0,0l0,0c0,0,0,0,0,0c0,0,0,0,0,0c0,0,0,0,0,0l0,0L29,25.1C29,25.1,29,25.1,29,25.1
			C29,25.1,29,25.1,29,25.1C29,25.1,29,25.1,29,25.1C28.9,25.1,28.9,25.1,29,25.1C28.9,25.1,28.9,25.1,29,25.1
			C28.9,25.1,29,25.1,29,25.1C29,25.1,29,25.1,29,25.1z M29.2,25c0,0,0,0.1,0,0.1c0,0,0,0,0,0c0,0,0,0,0.1,0c0,0,0.1,0,0.1,0
			C29.4,25.1,29.3,25,29.2,25L29.2,25z M28.9,24.8L28.9,24.8c0,0,0,0.1,0,0.1c0,0,0,0,0,0.1c0,0,0,0,0,0c0,0,0.1,0,0.1-0.1
			C29,24.9,29,24.9,28.9,24.8z"/>
	</g>
	<g id="Fill_71">
		<path class="st0" d="M30.4,29C30.4,29,30.3,29,30.4,29C30.3,29,30.3,29,30.4,29c-0.1-0.1-0.1-0.1-0.1-0.1c0,0,0,0,0,0c0,0,0,0,0,0
			c0,0,0,0,0,0l0,0l0,0l0,0c0,0,0,0,0,0c0,0,0,0,0,0c0,0,0,0.1,0,0.1c0,0,0,0,0,0c0,0,0,0-0.1,0c0,0,0,0,0,0c0,0,0,0,0,0
			c0,0,0-0.1,0-0.1c0,0,0.1,0,0.1,0c0,0,0.1,0,0.1,0c0,0,0,0,0,0c0,0,0,0,0,0c0,0,0,0,0,0c0,0,0,0,0,0c0,0,0,0,0,0v0
			c0,0-0.1,0-0.1,0.1c0,0,0-0.1,0-0.1c0,0,0.1-0.1,0.1-0.1l0,0c0,0,0,0,0,0c0,0,0,0,0,0c0.1,0,0.1,0.1,0.1,0.1l0,0
			c0,0,0.1,0.1,0.1,0.1c0,0,0,0,0.1,0c0,0,0.1,0,0.1,0h0c0,0,0,0,0,0c0,0,0,0,0,0c-0.1,0-0.1-0.1-0.2-0.1c0,0-0.1,0-0.1-0.1
			c0-0.1,0-0.1,0-0.2l0,0c0,0-0.1,0-0.1,0c-0.1,0-0.2,0-0.2,0c-0.2,0-0.4,0-0.5,0.1l0,0c-0.1,0.1-0.2,0.1-0.4,0.1
			c-0.1,0-0.1,0-0.2,0h0c0,0,0,0,0,0l0,0c0,0-0.1,0.1-0.1,0h0c0,0,0,0,0,0c0,0,0,0,0,0c0,0,0,0,0,0c0,0,0,0,0,0c0,0,0,0,0,0
			l-0.2,0.1v0l0,0c0,0-0.1,0.1-0.2,0.1h0c0,0,0.1,0,0.1-0.1c0,0,0,0,0,0c0,0,0,0,0,0c-0.1,0-0.1,0-0.2,0c-0.1,0-0.2,0-0.2,0.2
			c0,0,0-0.1,0-0.1c0,0,0,0,0,0s0,0,0,0c0,0,0-0.1,0-0.1c0,0,0,0,0,0l0,0l0,0c0,0-0.1,0-0.1,0c0,0,0,0-0.1,0c0,0,0,0,0,0
			c0,0,0,0,0,0c0,0.1-0.1,0.1-0.1,0.1c0,0,0.1-0.1,0-0.2c0,0,0,0.1-0.1,0.1c0,0,0-0.1,0-0.1c0,0,0,0,0,0c0,0,0,0,0,0
			c0,0,0,0.1,0,0.1c0,0-0.1,0-0.1,0h0c-0.1,0-0.1-0.1-0.1-0.1c0,0,0,0,0,0c0,0,0,0,0,0c0,0,0,0,0,0c0,0,0,0,0,0.1c0,0,0,0.1-0.1,0.1
			l0,0l0,0c0,0.1,0,0.1,0.1,0.1h0c0,0-0.1,0-0.1,0c0,0,0-0.1,0-0.1c0,0,0,0,0,0c0,0,0,0,0,0c0,0,0,0,0,0c0,0,0,0,0,0
			c0,0,0-0.1,0-0.1c0,0,0,0,0-0.1c0,0,0,0,0,0l0,0l0,0c0,0-0.1,0.1-0.1,0.1c0,0-0.1,0-0.1-0.1c0,0,0,0,0,0c0,0,0,0,0,0
			c0,0-0.1,0-0.1,0.1c0,0,0-0.1,0-0.1c0,0,0.1-0.1,0.1-0.1h0h0l0,0c0,0,0,0,0,0c0,0,0,0,0,0c0,0,0,0,0.1,0c0,0,0,0,0,0c0,0,0,0,0,0
			c0,0,0,0,0,0c0,0,0,0,0,0c0,0,0,0,0,0c-0.1,0-0.1-0.1-0.1-0.1c0,0,0,0,0,0c0,0,0,0,0,0c0,0-0.1-0.1-0.1-0.1c0,0,0,0,0.1,0
			c0,0,0.1,0,0.1,0h0.1c0,0,0.1,0,0.1,0.1c0,0,0,0,0,0.1c0,0,0,0,0,0c0,0,0.1,0.1,0.1,0c0.1,0,0.2,0,0.3-0.1c0.1,0,0.2,0,0.3,0H28
			c0,0,0,0,0-0.1c0,0,0-0.1,0-0.1c0,0,0,0,0,0c0,0-0.1,0-0.1,0l0,0c-0.1-0.1-0.2-0.2-0.3-0.3c0,0,0,0,0,0c0,0,0,0,0,0c0,0,0,0,0,0.1
			c0,0-0.1,0-0.1-0.1c0,0,0,0,0,0c0,0,0,0,0,0c0,0,0,0,0,0c0,0,0,0,0,0s0,0,0,0c0,0-0.1,0-0.1,0c-0.1,0-0.1,0-0.1-0.1
			c0,0,0-0.1,0-0.2c0,0,0,0.1,0,0.1c0,0,0,0,0.1,0c0,0,0.1,0,0.1-0.1c0,0,0,0,0,0c0,0,0,0,0,0c0,0-0.1,0-0.1-0.1c0,0,0-0.1,0-0.1
			c0,0,0,0,0,0c0,0,0,0,0,0c0,0,0,0,0,0c0,0,0,0,0,0c0,0,0,0,0,0c0,0,0,0-0.1,0c0,0,0,0,0,0c0,0,0,0,0,0c0,0,0,0,0,0c0,0,0,0,0,0.1
			v0c0,0-0.1,0-0.1-0.1c0,0,0-0.1,0-0.1c0,0,0,0,0,0c0,0,0,0,0,0c0,0,0-0.1,0.1-0.1c0,0,0,0,0,0c0,0,0.1,0,0.1,0c0,0,0,0,0,0
			s0,0,0,0c0,0,0,0,0,0c0,0,0,0,0,0c-0.1,0-0.1,0-0.1-0.1c0,0,0,0,0-0.1c0,0,0,0,0,0c0,0,0,0,0,0c0,0,0,0,0.1,0c0,0,0.1,0,0.1,0.1
			c0,0,0,0,0,0v0h0c0,0,0.1,0.1,0.1,0.2c0,0,0,0,0,0l0,0c0,0,0,0,0,0c0,0,0,0,0,0c0,0,0,0,0,0c0,0,0,0,0,0c0,0,0,0,0,0
			c0,0,0,0,0-0.1c0,0,0-0.1-0.1-0.1c0,0,0,0,0,0c0.1,0,0.1,0,0.1,0.1c0,0,0,0,0,0c0,0,0,0,0,0c0,0,0,0.1,0,0.1c0,0,0,0.1,0,0.1
			c0,0.1,0,0.1,0.1,0.2c0.1,0,0.1,0.1,0.1,0.1c0,0,0.1,0.1,0.1,0.1c0,0,0,0,0,0c0,0,0,0,0,0c0,0,0.1,0,0.1,0l0,0c0-0.1,0-0.1,0-0.2
			c0,0,0,0,0-0.1c0,0,0.1-0.1,0.1-0.1c0,0,0-0.1,0-0.1c0,0,0,0-0.1-0.1c0,0,0,0,0,0c0,0,0.1,0,0.1-0.1c0,0,0.1-0.1,0.1-0.1
			c0-0.1,0-0.1,0-0.2c0,0,0.1,0,0.1,0.1c0,0,0.1,0,0.1,0c0,0,0,0,0,0c0,0,0,0,0,0c0,0,0,0,0,0h0c0,0,0,0,0,0c0,0,0.1,0,0.1,0
			c0,0,0.1,0,0.1,0.1l0,0c0,0,0,0,0,0c0,0,0,0.1,0,0.1c0,0,0,0.1,0,0.1c0,0,0.1,0,0.1,0.1c0,0.1-0.1,0.1-0.1,0.1
			c0.1,0.1,0,0.2-0.1,0.3c0,0,0,0.1-0.1,0.1c0.3-0.1,0.5-0.1,0.8-0.1c0.5,0,1,0,1.4,0.1c0.2,0,0.4,0,0.5,0c0.2,0,0.7,0,0.7-0.2
			c0-0.1-0.1-0.1-0.5-0.1c-0.1,0-0.2,0-0.4,0c-0.3,0-0.6,0.1-1,0.1c-0.2,0-0.4,0-0.6-0.1c-0.2,0-0.2-0.1-0.2-0.2
			c0-0.2,0.3-0.2,0.6-0.2c0.1,0,0.2,0,0.2,0c0.1,0,0.2,0,0.2,0c0,0,0,0,0,0c0.1,0,0.2-0.1,0.3-0.1c0.1,0,0.2,0,0.3,0l0,0
			c0.1,0,0.2,0,0.3,0c0.1,0,0.2,0,0.2,0c0,0.1-0.3,0.1-0.6,0.1c0.1,0,0.1,0,0.2,0c0.1,0,0.3,0,0.4,0h0c0.1,0,0.2,0,0.4,0
			c0.1,0,0.3,0,0.4,0.1c-0.1,0-0.2,0-0.2,0c-0.2,0-0.4,0-0.5,0.1l0,0c-0.2,0.1-0.4,0.1-0.6,0.1c-0.1,0-0.2,0-0.4,0
			c0,0-0.1,0-0.1-0.1c-0.1,0-0.2,0-0.2,0c-0.1,0-0.2,0-0.3,0c-0.2,0-0.4,0-0.4,0.1s0.2,0.2,0.7,0.2c0.3,0,0.6,0,0.9,0
			c0.2,0,0.4,0,0.5,0c0.5,0,0.7,0.1,0.7,0.3c0,0.2-0.6,0.3-0.8,0.3c0.1,0,0.2,0,0.3,0c0.1,0,0.1,0,0.2,0c0,0,0.1,0,0.1,0h0
			c0,0,0.1,0,0.1,0v0c0,0,0,0.1,0,0.1c0,0,0.1,0,0.1-0.1c0,0,0,0.1,0,0.1l0,0c0,0,0,0,0,0s0,0,0,0c0,0,0,0,0,0c0,0,0,0.1,0.1,0.1h0
			c0,0,0,0-0.1,0h0c0,0,0.1,0,0.1,0.1c0,0,0,0.1-0.1,0.1c0,0,0,0,0,0.1c0,0,0,0,0,0c0,0,0.1,0.1,0,0.1c0,0,0,0,0,0.1c0,0,0,0,0.1,0
			c0,0,0,0-0.1,0c0,0-0.1,0-0.1-0.1c0,0,0,0,0,0c0,0,0-0.1,0-0.1c0,0,0,0,0,0c0,0,0,0,0,0c0,0,0,0,0,0.1c0,0,0,0.1,0,0.1h0
			c0,0.1,0,0.1,0,0.1c-0.1,0-0.1-0.1-0.1-0.1l0,0c0,0,0,0,0,0c0,0,0-0.1,0.1-0.1c0,0,0,0,0,0c0,0,0,0,0,0c0,0,0,0,0,0c0,0,0,0-0.1,0
			c0,0-0.1,0-0.1-0.1c0,0,0,0,0,0c0,0-0.1,0-0.1,0c0,0,0,0,0,0c0-0.1,0.1-0.1,0.1-0.1c0,0,0,0,0.1,0l0.1,0c0,0,0.1,0,0.1,0
			c0,0,0,0,0.1,0c0,0,0,0,0-0.1c0,0,0-0.1,0-0.1c0,0,0,0,0-0.1h0c0,0-0.1,0-0.1,0c-0.1,0-0.1,0-0.2,0c-0.1,0.1-0.3,0.1-0.4,0.1
			c-0.1,0-0.2,0-0.3-0.1l0,0c0,0,0,0.1,0,0.1c0,0,0,0.1,0,0.1c0.1,0.1,0.1,0.2,0.1,0.2c0,0-0.1,0-0.1,0c0,0-0.1,0-0.1,0c0,0,0,0,0,0
			c0,0,0,0,0,0c0,0,0,0,0,0.1c0,0,0,0.1-0.1,0.1c0,0,0,0,0,0c0,0-0.1,0-0.1-0.1c0,0,0,0,0,0c0,0,0,0,0,0h0c0,0,0,0,0,0
			C30.5,28.9,30.4,28.9,30.4,29C30.4,29,30.4,29,30.4,29C30.4,29,30.4,29,30.4,29L30.4,29C30.5,29,30.4,29,30.4,29z M28.4,27.5
			C28.4,27.5,28.4,27.5,28.4,27.5C28.4,27.5,28.4,27.5,28.4,27.5C28.4,27.5,28.4,27.5,28.4,27.5L28.4,27.5c0,0.1,0.1,0.1,0,0.1
			c0,0,0,0-0.1,0c0,0,0,0,0,0l0,0c0,0,0,0.1,0,0.1c0,0,0,0,0,0c0,0,0.1,0,0.1-0.1c0,0,0-0.1,0-0.1c0,0,0,0,0-0.1c0,0,0,0,0,0
			c0,0,0,0,0,0c0,0,0,0,0,0h0c0,0,0,0,0,0c0,0,0,0,0,0h0c0,0,0,0,0,0c0,0,0,0,0,0s0,0,0,0l0,0l0,0c0,0,0,0,0-0.1l0,0L28.4,27.5
			L28.4,27.5C28.4,27.5,28.4,27.5,28.4,27.5C28.4,27.5,28.3,27.5,28.4,27.5L28.4,27.5C28.3,27.5,28.3,27.5,28.4,27.5
			C28.3,27.5,28.3,27.5,28.4,27.5L28.4,27.5L28.4,27.5C28.3,27.5,28.4,27.5,28.4,27.5z"/>
	</g>
	<g id="Fill_73">
		<path class="st0" d="M37.7,32.4C37.7,32.4,37.6,32.4,37.7,32.4C37.6,32.4,37.6,32.4,37.7,32.4c-0.1-0.1-0.1-0.1-0.1-0.1
			c0,0,0,0,0,0c0,0,0,0,0,0c0,0,0,0,0,0c0,0,0,0,0,0s0,0,0,0c0,0,0,0,0,0c0,0,0,0.1,0,0.1c0,0,0,0-0.1,0c0,0-0.1,0-0.1-0.1
			c0,0,0,0,0,0c0,0,0,0,0,0v0c0,0,0-0.1,0-0.1c0,0,0.1,0,0.1,0c0,0,0.1,0,0.1,0c0,0,0,0,0,0c0,0,0,0,0,0c0,0,0,0,0,0c0,0,0,0,0,0
			c-0.1,0-0.1,0-0.1-0.1v0c0,0-0.1,0-0.1,0.1c0,0,0-0.1,0-0.1c0,0,0.1-0.1,0.1-0.1c0,0,0,0,0,0l0,0c0,0,0,0,0,0
			c0.1,0,0.1,0.1,0.1,0.1v0c0,0,0.1,0.1,0.1,0.1c0,0,0,0,0.1,0c0,0,0.1,0,0.1,0c0,0,0,0,0,0c0,0,0,0,0,0c-0.1,0-0.1-0.1-0.2-0.1
			c0,0-0.1,0-0.1-0.1c0-0.1,0-0.2,0-0.3c0,0,0,0,0,0c0,0,0,0.1-0.1,0.1c-0.1,0-0.2,0-0.2,0c-0.2,0-0.3,0-0.5,0.1l0,0
			C36.8,32,36.7,32,36.5,32c-0.1,0-0.1,0-0.2,0h0c0,0,0,0,0,0l0,0c0,0-0.1,0.1-0.1,0.1h0c-0.1,0-0.1,0-0.1,0c0,0.1-0.2,0.2-0.2,0.2
			c0,0,0,0,0,0c0,0,0.1,0,0.1-0.1c0,0,0,0,0,0c0,0,0,0,0,0c0,0-0.1,0-0.1,0c-0.1,0-0.1,0-0.2,0.2c0,0,0-0.1,0-0.1c0,0,0,0,0,0
			s0,0,0,0c0,0,0-0.1,0-0.1c0,0,0,0,0,0l0,0h0c0,0-0.1,0-0.1,0c0,0-0.1,0-0.1,0c0,0,0,0,0,0c0,0,0,0,0-0.1c0,0.1-0.1,0.1-0.1,0.2
			c0,0,0.1-0.1,0-0.2c0,0,0,0-0.1,0.1c0,0,0-0.1,0-0.1c0,0,0,0,0,0c0,0,0,0.1,0,0.1c0,0-0.1,0-0.1,0h0c-0.1,0-0.1-0.1-0.1-0.1
			c0,0,0,0,0,0l0,0c0,0,0,0,0,0.1c0,0,0,0.1-0.1,0.1c0,0,0,0,0,0c0,0,0,0,0,0h0c0,0.1,0,0.1,0.1,0.1h0c0,0-0.1,0-0.1,0
			c0,0,0-0.1,0-0.1c0,0,0,0,0,0h0c0,0,0,0,0,0c0,0,0,0,0,0c0,0,0-0.1,0-0.1c0,0,0,0,0-0.1c0,0,0,0,0,0l0,0h0c0,0-0.1,0-0.1,0.1
			c0,0-0.1,0-0.1-0.1c0,0,0,0,0,0v0c0,0-0.1,0-0.1,0.1c0,0,0-0.1,0-0.1c0,0,0.1-0.1,0.1-0.1h0l0,0c0,0,0,0,0,0c0,0,0,0,0,0
			c0,0,0,0,0.1,0c0,0,0,0,0,0c0,0,0,0,0,0c0,0,0,0,0,0c0,0,0,0,0,0c0,0,0,0,0,0c-0.1,0-0.1-0.1-0.1-0.1c0,0,0,0,0,0c0,0,0,0,0,0
			c0,0,0-0.1-0.1-0.1c0,0,0,0,0.1,0c0,0,0.1,0,0.1,0h0.1c0,0,0.1,0,0.1,0.1c0,0,0,0,0,0.1c0,0,0,0,0,0c0,0,0.1,0,0.1,0
			c0.1,0,0.2,0,0.3-0.1c0,0,0.1,0,0.1,0c0,0,0.1,0,0.1,0h0c0,0,0,0,0,0c0,0-0.1-0.1-0.1-0.2l0,0c0,0-0.1-0.1-0.1-0.1c0,0,0,0-0.1,0
			c0,0-0.1,0-0.1,0c-0.1-0.1-0.2-0.2-0.3-0.3c0,0,0-0.1-0.1-0.1c0,0,0,0,0,0c0,0,0,0,0,0c0,0-0.1,0-0.1-0.1c0,0,0,0,0,0c0,0,0,0,0,0
			c0,0,0,0,0,0l0,0l0,0c0,0,0,0,0,0c0,0,0,0,0,0s0,0,0,0c0,0-0.1,0-0.1,0c-0.1,0-0.1,0-0.1-0.1c0-0.1,0-0.1,0-0.2c0,0,0,0.1,0,0.1
			c0,0,0,0,0.1,0c0,0,0.1,0,0.1-0.1c0,0,0,0,0,0c0,0,0,0,0,0c0,0,0,0,0,0c0,0-0.1,0-0.1-0.1c0,0,0-0.1,0-0.1c0,0,0,0,0,0
			c0,0,0,0,0,0h0c0,0,0,0-0.1,0c0,0,0,0,0,0c0,0,0,0,0,0l0,0h0c0,0,0,0.1,0,0.1c0,0-0.1,0-0.1-0.1c0,0,0,0,0-0.1c0,0,0,0,0,0
			c0,0,0-0.1,0.1-0.1c0,0,0,0,0,0c0,0,0.1,0,0.1,0c0,0,0,0,0,0c0,0,0,0,0,0c0,0,0,0,0,0l0,0c0,0,0,0,0,0c0,0,0,0,0,0
			c0,0-0.1,0-0.1,0c0,0,0,0,0-0.1c0,0,0,0,0-0.1c0,0,0,0-0.1,0c0,0,0,0,0.1,0c0,0,0.1,0,0.1,0.1c0,0,0,0,0,0c0,0,0,0,0,0h0
			c0.1,0,0.1,0.1,0.1,0.2c0,0,0,0,0,0l0,0c0,0,0,0,0,0c0,0,0,0,0,0c0,0,0,0,0,0c0,0,0-0.1,0-0.1c0,0,0,0,0,0l0,0c0,0,0-0.1-0.1-0.1
			c0,0,0,0,0,0c0.1,0,0.1,0,0.1,0.1c0,0,0,0,0,0.1c0,0,0,0.1,0,0.1c0,0,0,0.1,0,0.1c0,0.1,0,0.2,0.1,0.2c0.1,0,0.1,0.1,0.2,0.1
			c0.1,0,0.1,0.1,0.1,0.1l0,0c0,0,0,0,0,0h0.1l0.1,0c0,0,0-0.1,0-0.1c0,0,0,0,0-0.1c0,0-0.1,0-0.1-0.1c0,0,0.1-0.1,0.1-0.1
			c0,0,0-0.1,0-0.1c0,0,0,0-0.1-0.1h0c0,0,0.1,0,0.1-0.1s0.1-0.1,0.1-0.1c0-0.1,0-0.1,0-0.2c0,0,0.1,0,0.1,0c0,0,0,0,0.1,0h0
			c0,0,0,0,0.1,0c0,0,0,0,0,0c0.1,0,0.1,0,0.2,0c0.1,0,0.1,0.1,0.2,0.1c0,0,0,0,0,0.1c0,0,0,0,0,0c0,0,0,0.1,0,0.1
			c0,0,0.1,0,0.1,0.1c0,0.1-0.1,0.1-0.1,0.1c0.1,0.1,0,0.2-0.1,0.2c0,0,0,0.1-0.1,0.1c0.3-0.1,0.6-0.1,0.9-0.1c0.5,0,1,0,1.3,0.1
			c0.2,0,0.4,0,0.5,0s0.7,0,0.7-0.1c0-0.1-0.1-0.1-0.5-0.1c-0.1,0-0.2,0-0.4,0c-0.3,0-0.6,0.1-0.9,0.1c-0.2,0-0.4,0-0.6-0.1
			c-0.2,0-0.2-0.1-0.2-0.2c0-0.2,0.3-0.2,0.6-0.2c0.1,0,0.2,0,0.3,0h0.2c0,0,0,0,0,0c0.1,0,0.2-0.1,0.3-0.1c0.1,0,0.2,0,0.3,0l0,0
			c0.1,0,0.2,0,0.3,0c0.1,0,0.2,0,0.2-0.1c0,0.1-0.3,0.1-0.6,0.1c0.1,0,0.1,0,0.2,0c0.1,0,0.3,0,0.4-0.1l0,0c0.1,0,0.3,0,0.4,0
			c0.1,0,0.2,0,0.3,0.1c0,0-0.1,0-0.1,0c-0.2,0-0.4,0-0.6,0.1l-0.1,0c-0.2,0.1-0.5,0.1-0.7,0.1c-0.1,0-0.2,0-0.3,0
			c-0.1,0-0.1,0-0.1-0.1c-0.1,0-0.2,0-0.3,0c-0.1,0-0.2,0-0.3,0c-0.2,0-0.3,0-0.3,0.1c0,0.1,0.2,0.2,0.7,0.2c0.3,0,0.6,0,0.9,0
			c0.2,0,0.4,0,0.5,0c0.5,0,0.7,0.1,0.7,0.3s-0.6,0.2-0.8,0.2c0,0,0,0,0,0s0,0,0,0c0.1,0,0.2,0,0.3,0c0.1,0,0.1,0,0.2,0
			c0,0,0.1,0,0.1,0h0c0.1,0,0.1,0.1,0.1,0.1c0,0,0,0,0,0c0,0,0.1,0,0.1-0.1c0,0.1,0,0.1-0.1,0.1c0,0,0,0,0,0c0,0,0,0,0,0
			c0,0,0,0,0,0.1c0,0,0,0,0,0h0c0,0,0,0-0.1,0h0c0,0,0,0,0,0l0,0c0,0,0,0,0,0.1c0,0,0,0.1-0.1,0.1c0,0,0,0,0,0c0,0,0,0,0,0
			c0,0,0.1,0.1,0,0.1c0,0,0,0,0,0c0,0,0,0,0,0c0,0,0,0,0,0h0c0,0,0,0-0.1,0c0,0-0.1,0-0.1-0.1c0,0,0,0,0,0c0,0,0,0,0,0
			c0,0,0-0.1,0-0.1l0,0c0,0,0,0,0,0c0,0,0,0,0,0.1c0,0,0,0.1,0,0.1h0c0,0,0,0.1,0,0.1c0,0-0.1-0.1-0.1-0.1l0,0c0,0,0,0,0,0
			c0,0,0.1-0.1,0.1-0.1l0,0c0,0,0,0,0,0c0,0,0,0,0,0c0,0,0,0,0,0c0,0,0,0-0.1,0c0,0,0,0-0.1,0c0,0,0,0,0-0.1v0c0,0-0.1,0-0.1,0
			c0,0,0,0,0,0c0-0.1,0.1-0.1,0.1-0.1h0c0,0,0,0,0.1,0h0c0,0,0,0,0.1,0c0,0,0,0,0.1,0c0,0,0,0,0.1,0c0,0,0,0,0-0.1c0,0,0-0.1,0-0.1
			c0,0,0-0.1,0-0.1c0,0,0,0,0,0c0,0-0.1,0-0.1,0c-0.1,0-0.1,0-0.2,0c-0.1,0.1-0.3,0.1-0.4,0.1c-0.1,0-0.2,0-0.3-0.1c0,0,0,0.1,0,0.1
			c0,0,0,0.1,0,0.1c0,0,0.1,0.1,0.1,0.1c0,0,0,0.1,0,0.1c0,0-0.1,0-0.1,0c0,0-0.1,0-0.1,0c0,0,0,0,0,0h0h0c0,0,0,0,0,0.1
			c0,0,0,0.1-0.1,0.1c0,0,0,0,0,0c0,0-0.1,0-0.1-0.1l0,0c0,0,0,0,0,0h0c0,0,0,0,0,0C37.7,32.3,37.7,32.4,37.7,32.4
			C37.7,32.4,37.7,32.4,37.7,32.4C37.7,32.4,37.7,32.4,37.7,32.4C37.8,32.4,37.7,32.4,37.7,32.4z M35.6,31.1
			C35.6,31.1,35.6,31.1,35.6,31.1L35.6,31.1c-0.1,0.1-0.1,0.2,0,0.2c0,0,0,0,0,0c0,0,0.1,0,0.1-0.1c0,0,0-0.1,0-0.1
			C35.7,31.1,35.7,31.1,35.6,31.1c0.1,0,0.1,0,0.1,0c0,0,0,0,0.1,0l0,0c0,0,0,0,0-0.1c0,0,0,0,0,0c0,0,0,0,0,0s0,0,0,0l0,0
			c0,0,0,0,0,0c0,0,0,0,0,0c0,0,0,0,0,0s0,0,0,0l0,0l-0.2-0.1c0,0,0,0,0,0c0,0,0,0,0,0c0,0,0,0,0,0l0,0c0,0,0,0,0,0c0,0,0,0,0,0h0h0
			c0,0,0,0,0,0c0,0,0,0,0,0c0,0,0,0,0,0c0,0,0,0,0,0l0,0l0,0h0C35.7,31,35.7,31,35.6,31.1C35.7,31,35.7,31.1,35.6,31.1L35.6,31.1
			L35.6,31.1z M35.9,30.8C35.9,30.8,35.9,30.8,35.9,30.8c0,0.1,0,0.1,0.1,0.1c0,0,0,0,0.1,0c0,0,0,0,0.1,0
			C36,30.8,36,30.8,35.9,30.8z"/>
	</g>
	<g id="Fill_75">
		<path class="st0" d="M34.5,34.6L34.5,34.6C34.4,34.6,34.4,34.6,34.5,34.6c-0.1-0.1-0.1-0.1-0.1-0.1c0,0,0,0,0,0c0,0,0,0,0,0
			c0,0,0,0,0,0c0,0,0-0.1,0-0.1c0,0,0,0,0-0.1c0,0,0,0,0,0c0,0,0,0,0,0h0c0,0-0.1,0.1-0.1,0.1c0,0-0.1,0-0.1-0.1c0,0,0,0,0,0
			c0,0-0.1,0-0.1,0.1c0,0,0-0.1,0-0.1c0,0,0.1-0.1,0.1-0.1c0,0,0,0,0,0l0,0l0,0l0,0c0,0,0,0,0,0c0,0,0,0,0.1,0c0,0,0,0,0,0
			c0,0,0,0,0,0c0,0,0,0,0,0c0,0,0,0,0,0l0,0c-0.1,0-0.1-0.1-0.1-0.1c0,0,0,0,0,0v0c0,0,0,0,0,0c0,0,0-0.1-0.1-0.1c0,0,0,0,0.1,0
			c0,0,0.1,0,0.1,0h0.1c0,0,0.1,0,0.1,0.1c0,0,0,0,0,0.1c0,0,0,0,0,0c0,0,0.1,0.1,0.1,0c0.1,0,0.2,0,0.3-0.1c0,0,0.1,0,0.1,0
			c0,0,0.1,0,0.1,0h0l0,0c0,0,0-0.1,0-0.1c0,0,0-0.1,0-0.1l-0.1,0c0,0-0.1,0-0.1-0.1c0,0-0.1,0-0.1-0.1c0,0,0,0,0,0c0,0,0,0,0,0
			c0,0,0,0,0,0c0,0,0,0,0,0.1c0,0-0.1,0-0.1-0.1c0,0,0,0,0,0h0c0,0,0,0,0,0c0,0,0,0,0-0.1l0,0l0,0l0,0c0,0-0.1,0-0.1,0
			c-0.1,0-0.1,0-0.1-0.1c0,0,0-0.1,0-0.2c0,0,0,0.1,0,0.1c0,0,0,0,0.1,0c0,0,0.1,0,0.1-0.1c0,0,0,0,0,0c0,0-0.1,0-0.1,0
			c0,0,0-0.1,0-0.1l0,0c0,0,0,0,0,0h0c0,0,0,0,0,0c0,0,0,0,0,0c0,0,0,0,0,0c0,0,0,0-0.1,0c0,0,0,0,0,0c0,0,0,0,0,0h0c0,0,0,0,0,0
			c0,0,0,0,0,0.1v0c0,0,0,0,0-0.1c0,0,0,0,0-0.1c0,0,0,0,0-0.1c0,0,0-0.1,0.1-0.1c0,0,0.1,0,0.1,0c0,0,0,0,0,0c0,0,0,0,0,0v0
			c0,0,0,0,0,0c0,0,0,0,0,0c0,0-0.1,0-0.1,0c0,0,0,0,0-0.1c0,0,0,0,0-0.1c0,0,0,0,0,0c0,0,0,0,0,0c0,0,0,0,0.1,0c0,0,0.1,0,0.1,0.1
			c0,0,0,0,0,0v0c0,0,0,0,0,0c0,0,0,0,0,0h0c0,0,0.1,0.1,0.1,0.1l0,0l0,0l0,0c0,0,0,0,0,0c0,0,0,0,0,0c0,0,0,0,0,0c0,0,0,0,0,0
			c0,0,0-0.1,0-0.1c0,0,0,0,0,0c0,0,0-0.1-0.1-0.1c0,0,0,0,0,0c0.1,0,0.1,0,0.1,0.1l0,0c0,0,0,0,0,0.1c0,0,0,0.1,0,0.1
			c0,0,0,0.1,0,0.1c0,0.1,0,0.2,0.1,0.2c0.1,0,0.1,0.1,0.2,0.1h0h0l0.1,0c0-0.1,0-0.1,0-0.2l0,0c0,0,0,0,0,0c0,0,0.1-0.1,0.1-0.1
			c0,0,0-0.1,0-0.1c0,0,0,0-0.1-0.1h0c0,0,0.1,0,0.1-0.1c0,0,0.1-0.1,0.1-0.1c0-0.1,0-0.1,0-0.2c0,0,0.1,0,0.1,0c0,0,0,0,0.1,0h0h0
			h0c0,0,0.1,0,0.1,0c0.1,0,0.1,0.1,0.1,0.1c0,0,0,0,0,0c0,0,0,0,0,0v0c0,0,0,0,0,0.1c0,0,0.1,0,0.1,0.1c0,0.1,0,0.1-0.1,0.1
			c0,0.1,0,0.2-0.1,0.2c0,0,0,0.1,0,0.1c0.2,0,0.4,0,0.6,0c0.4,0,0.7,0,1,0.1c0.2,0,0.4,0,0.5,0c0.2,0,0.7,0,0.7-0.1c0,0,0,0,0,0
			c0,0,0,0,0-0.1c0,0-0.1,0-0.4,0c-0.1,0-0.2,0-0.4,0c-0.2,0-0.5,0-0.7,0c-0.1,0-0.3,0-0.4-0.1c-0.1,0-0.2-0.1-0.2-0.2
			c0-0.2,0.2-0.2,0.5-0.2h0.2h0c0,0,0,0,0,0c0.1,0,0.2-0.1,0.3-0.1c0.1,0,0.2,0,0.3,0c0.1,0,0.2,0,0.3,0c0.1,0,0.2,0,0.2,0
			c0,0.1-0.3,0.1-0.6,0.1c0.1,0,0.1,0,0.2,0c0.1,0,0.3,0,0.4,0c0.1,0,0.2,0,0.4-0.1c0.1,0,0.2,0,0.3,0.1c0,0-0.1,0-0.1,0
			c-0.2,0-0.4,0-0.5,0.1l-0.1,0c-0.2,0.1-0.5,0.1-0.7,0.1c-0.1,0-0.2,0-0.3,0c0,0-0.1,0-0.1-0.1h0c-0.1,0-0.2,0-0.2,0
			c-0.1,0-0.2,0-0.2,0.1c0,0.1,0.2,0.2,0.5,0.2c0.2,0,0.4,0,0.6,0c0.2,0,0.3,0,0.5,0c0.5,0,0.5,0.1,0.5,0.2c0,0.2-0.6,0.2-0.8,0.2
			c0,0,0,0,0,0s0,0,0,0l0.2,0c0.1,0,0.2,0,0.3,0c0,0,0.1,0,0.1,0h0c0,0,0,0,0,0c0,0,0,0,0,0c0,0,0,0,0,0c0,0,0,0,0,0
			c0,0,0.1,0,0.1,0c0,0,0,0.1-0.1,0.1c0,0,0,0,0,0c0,0,0,0,0,0c0,0,0,0,0,0.1c0,0,0,0,0,0h0c0,0,0,0-0.1,0h0c0,0,0,0,0,0l0,0
			c0,0,0,0,0,0c0,0,0,0,0,0.1c0,0,0,0.1-0.1,0.1c0,0-0.1,0-0.1,0c0,0,0,0,0,0c0,0,0,0,0,0.1c0,0,0,0,0,0c0,0,0,0,0,0c0,0,0,0,0,0
			l0,0c0,0,0,0-0.1,0c0,0-0.1,0-0.1-0.1c0,0,0,0,0,0c0,0,0,0,0,0c0,0,0,0,0,0c0,0,0-0.1,0-0.1l0,0l0,0c0,0,0,0,0,0c0,0,0,0-0.1,0.1
			c0,0,0,0.1-0.1,0.1h0c0,0,0,0.1,0,0.1c0,0,0,0,0,0c0,0,0-0.1,0-0.1c0,0,0,0,0,0c0,0,0,0,0,0c0,0,0.1-0.1,0.1-0.1l0,0c0,0,0,0,0,0
			s0,0,0,0c0,0,0,0,0,0c0,0,0,0-0.1,0c0,0,0,0,0,0c0,0,0,0,0-0.1c0,0,0,0,0,0c0,0-0.1,0-0.1,0.1c0-0.1,0.1-0.1,0.1-0.1
			c0,0,0,0,0.1,0l0.1,0c0,0,0.1,0,0.1,0c0,0,0,0,0.1,0c0,0,0,0,0-0.1c0,0,0-0.1,0-0.1c0,0,0,0,0,0c0,0,0,0,0,0c0,0-0.1,0-0.1,0
			c-0.1,0-0.1,0-0.2,0C38.1,34,38,34,37.8,34c-0.1,0-0.2,0-0.3-0.1c0,0,0,0.1,0,0.1c0,0,0,0,0,0.1c0,0,0.1,0.1,0.1,0.1
			c0,0,0,0.1,0,0.1c0,0-0.1,0-0.1,0c0,0-0.1,0-0.1,0c0,0,0,0,0,0c0,0,0,0,0,0h0c0,0,0,0,0,0.1c0,0,0,0.1-0.1,0.1c0,0,0,0,0,0
			c0,0-0.1,0-0.1-0.1c0,0,0,0,0,0c0,0,0,0,0,0h0c0,0,0,0,0,0c0,0,0,0.1,0,0.1s0,0,0,0c0,0,0,0,0,0c0,0,0.1,0,0.1,0c0,0,0,0-0.1,0
			c0,0-0.1,0-0.1,0c0,0,0,0,0-0.1c0,0,0-0.1,0-0.1c0,0,0,0,0,0c0,0,0,0,0,0c0,0,0,0,0,0c0,0,0,0,0,0s0,0,0,0c0,0,0,0,0,0h0
			c0,0,0,0.1,0,0.1c0,0,0,0,0,0c0,0,0,0-0.1,0c0,0,0,0,0-0.1c0,0,0,0,0,0c0,0,0-0.1,0-0.1c0,0,0.1,0,0.1,0c0,0,0.1,0,0.1,0s0,0,0,0
			c0,0,0,0,0,0c0,0,0,0,0,0c0,0,0,0-0.1,0c0,0,0,0,0,0c0,0,0,0,0,0c0,0-0.1,0-0.1,0c0,0,0-0.1,0-0.1c0,0,0.1-0.1,0.1-0.1h0
			c0,0,0,0,0,0l0,0c0,0,0,0,0,0c0.1,0,0.1,0,0.1,0.1l0,0c0,0,0.1,0.1,0.1,0.1c0,0,0,0,0.1,0c0,0,0.1,0,0.1,0l0,0l0,0c0,0,0,0,0,0
			c0,0-0.1-0.1-0.2-0.1c0,0,0,0-0.1,0c0-0.1,0-0.2,0-0.2c0,0-0.1,0.1-0.2,0.1h0c-0.1,0-0.1,0-0.2,0c-0.1,0-0.2,0-0.3,0.1h0
			c0,0.1-0.1,0.1-0.2,0.1h0c0,0,0,0,0,0l0,0c0,0-0.1,0-0.1,0h0c0,0,0,0,0-0.1c0,0,0,0,0,0c0,0.1-0.1,0.2-0.3,0.2c0,0-0.1,0-0.1,0
			c0,0,0.1,0,0.1-0.1c0,0,0,0,0,0l0,0c0,0,0,0,0,0c0,0-0.1,0-0.1,0.1c-0.1,0-0.2,0-0.2,0.2c0,0,0-0.1,0-0.1c0,0,0,0,0,0s0,0,0,0.1
			c0,0,0-0.1,0-0.1l0,0c0,0,0,0,0,0c0,0,0,0,0,0c0,0-0.1,0-0.1,0c0,0,0,0-0.1,0l0,0l0,0c0,0,0,0,0,0c0,0.1-0.1,0.1-0.1,0.1
			c0.1-0.1,0-0.1,0-0.1c0,0,0,0-0.1,0.1c0,0,0-0.1,0-0.1c0,0,0,0,0,0l0,0l0,0l0,0c0,0,0,0.1,0,0.1c0,0-0.1,0-0.1,0.1
			c-0.1,0-0.1,0-0.1-0.1l0,0c0,0,0,0,0,0c0,0,0,0,0,0c0,0,0,0,0,0c0,0,0,0,0,0c0,0,0,0.1-0.1,0.1h0c0,0,0,0,0,0
			C34.4,34.6,34.4,34.6,34.5,34.6L34.5,34.6z M35.6,33.1C35.6,33.1,35.6,33.1,35.6,33.1C35.6,33.1,35.6,33.2,35.6,33.1
			C35.6,33.2,35.6,33.2,35.6,33.1L35.6,33.1c0,0.1,0,0.1,0,0.1c0,0,0,0-0.1,0s0,0,0,0.1c0,0.1,0,0.1,0,0.1c0,0,0,0,0,0
			c0,0,0.1,0,0.1-0.1c0,0,0,0,0,0c0,0,0,0,0-0.1s0,0,0-0.1c0,0,0,0,0,0c0,0,0,0,0,0l0,0l0,0c0,0,0-0.1,0-0.1c0,0,0,0,0,0h0
			c0,0,0,0,0,0s0,0,0,0s0,0,0-0.1c0,0,0,0,0,0c0,0,0,0,0,0L35.6,33.1C35.6,33.1,35.6,33.1,35.6,33.1C35.6,33.1,35.6,33.1,35.6,33.1
			L35.6,33.1C35.6,33.1,35.5,33.1,35.6,33.1C35.5,33.1,35.5,33.1,35.6,33.1L35.6,33.1C35.6,33.1,35.6,33.1,35.6,33.1z"/>
	</g>
	<g id="Fill_77">
		<path class="st0" d="M36,37.1C36,37.1,36,37.1,36,37.1C36,37.1,35.9,37.1,36,37.1c-0.1-0.1-0.1-0.1-0.1-0.1c0,0,0,0,0,0
			c0,0,0,0,0,0c0,0,0,0,0,0c0,0,0,0,0,0v0c0,0,0,0,0,0h0c0,0,0,0,0,0.1c0,0,0,0,0,0c0,0,0,0-0.1,0c0,0,0,0,0-0.1l0,0c0,0,0,0,0,0
			c0,0,0,0,0-0.1c0,0,0.1,0,0.1,0c0,0,0.1,0,0.1,0c0,0,0,0,0,0c0,0,0,0,0,0c0,0,0,0,0,0c0,0-0.1,0-0.1,0v0c0,0-0.1,0-0.1,0.1
			c0,0,0-0.1,0-0.1c0,0,0.1,0,0.1-0.1h0l0,0c0,0,0,0,0,0c0,0,0,0,0,0c0,0,0.1,0,0.1,0.1v0c0,0,0.1,0.1,0.1,0.1c0,0,0,0,0,0
			c0,0,0.1,0,0.1,0l0,0c0,0,0,0,0,0s0,0,0,0c-0.1-0.1-0.1-0.1-0.2-0.2c0-0.1,0-0.2,0.1-0.2c-0.1,0-0.1,0-0.2,0.1
			c-0.1,0-0.1,0.1-0.2,0.1h0c0,0.1,0,0.2-0.1,0.3c0,0,0,0,0,0c0,0.1-0.1,0.1-0.2,0.1c0,0,0,0,0.1-0.1l0,0l0,0c0,0,0,0,0,0
			c0,0-0.1,0-0.1,0c-0.1,0-0.1,0-0.1,0.2c0,0,0-0.1,0-0.1c0,0,0,0,0,0s0,0,0,0c0,0,0-0.1,0-0.1c0,0,0,0,0,0l0,0l0,0c0,0-0.1,0-0.1,0
			c0,0,0,0-0.1,0c0,0,0,0,0,0c0,0,0,0,0,0c0,0.1-0.1,0.1-0.1,0.1c0,0,0.1-0.1,0-0.1c0,0,0,0-0.1,0c0,0,0-0.1,0-0.1c0,0,0,0,0,0
			c0,0.1,0,0.1-0.1,0.1h0c-0.1,0-0.1-0.1-0.1-0.1v0c0,0,0,0,0,0l0,0l0,0c0,0,0,0,0,0.1c0,0,0,0.1,0,0.1c0,0,0,0,0,0c0,0,0,0.1,0,0.1
			h0c0,0-0.1,0-0.1,0c0,0,0-0.1,0-0.1c0,0,0,0,0,0c0,0,0,0,0,0c0,0,0,0,0,0c0,0,0,0,0,0c0,0,0,0,0-0.1c0,0,0,0,0-0.1c0,0,0,0,0,0
			l0,0h0c0,0-0.1,0-0.1,0.1c0,0-0.1,0-0.1-0.1l0,0c0,0,0,0,0,0c0,0-0.1,0-0.1,0.1c0,0,0-0.1,0-0.1c0,0,0.1-0.1,0.1-0.1h0
			c0,0,0,0,0,0c0,0,0,0,0,0c0,0,0,0,0,0c0,0,0,0,0,0c0,0,0,0,0,0c0,0,0,0,0,0h0c0,0,0,0,0,0c-0.1,0-0.1-0.1-0.1-0.1c0,0,0,0,0,0
			c0,0,0,0,0,0c0,0,0,0,0,0c0,0,0,0-0.1-0.1h0c0,0,0,0,0.1,0c0,0,0.1,0,0.1,0h0.1c0,0,0.1,0,0.1,0.1c0,0,0,0,0,0.1c0,0,0,0,0,0
			c0,0,0.1,0,0.1,0h0v0l0,0l0,0c0.1,0,0.1,0,0.2-0.1c0,0,0.1,0,0.1,0c0.1,0,0.1,0,0.2,0h0c0,0,0,0,0,0c0,0,0-0.1,0-0.1h0
			c-0.1,0-0.2-0.1-0.2-0.2c-0.1-0.1-0.2-0.1-0.2-0.3c0,0,0,0,0,0c0,0,0,0,0,0c0,0,0,0,0,0c0,0-0.1,0-0.1-0.1c0,0,0,0,0,0
			c0,0,0,0,0,0c0,0,0,0,0,0c0,0,0,0,0,0v0c0,0,0,0,0,0c0,0,0,0,0,0c0,0-0.1,0-0.1,0c0,0-0.1,0-0.1-0.1c0,0,0-0.1,0-0.1
			c0,0,0,0.1,0,0.1c0,0,0,0,0.1,0c0,0,0.1,0,0.1-0.1c0,0,0,0,0,0c0,0,0,0,0,0l0,0c0,0-0.1,0-0.1-0.1c0,0,0-0.1,0-0.1c0,0,0,0,0,0
			c0,0,0,0,0,0c0,0,0,0,0,0c0,0,0,0,0,0l0,0c0,0,0,0,0,0c0,0,0,0,0,0l0,0c0,0,0,0,0,0c0,0,0,0,0,0.1v0c0,0,0,0,0-0.1c0,0,0,0,0-0.1
			c0,0,0,0,0,0c0,0,0-0.1,0.1-0.1c0,0,0.1,0,0.1,0c0,0,0,0,0,0c0,0,0,0,0,0c0,0,0,0,0,0c0,0-0.1,0-0.1,0c0,0,0,0,0,0c0,0,0,0,0,0
			c0,0,0,0,0,0c0,0,0,0,0,0c0,0,0,0,0,0c0,0,0,0,0.1,0c0,0,0.1,0,0.1,0.1c0,0,0,0,0,0v0h0c0.1,0,0.1,0.1,0.1,0.1c0,0,0,0,0,0
			c0,0,0,0,0,0c0,0,0,0,0,0c0,0,0,0,0,0c0,0,0,0,0-0.1c0,0,0,0,0,0c0,0,0,0,0,0c0,0,0-0.1,0-0.1l0,0h0c0,0,0.1,0,0.1,0.1
			c0,0,0,0.1,0,0.1c0,0,0,0.1,0,0.1c0,0,0,0.1,0,0.1c0,0.1,0,0.1,0.1,0.2c0.1,0.1,0.2,0.2,0.2,0.3C35,35.9,35,36,35,36
			c0-0.1,0-0.3,0-0.4c0,0,0,0-0.1-0.1c0,0,0.1-0.1,0.1-0.1c0,0,0,0,0-0.1l0,0c0,0,0,0-0.1-0.1h0c0,0,0.1,0,0.1-0.1
			c0,0,0-0.1,0.1-0.1c0-0.1,0-0.1,0-0.2c0,0,0.1,0,0.1,0c0,0,0,0,0,0c0,0,0,0,0,0c0,0,0,0,0,0l0,0c0,0,0,0,0.1,0h0l0,0
			c0,0,0.1,0,0.1,0c0.1,0,0.1,0.1,0.1,0.1c0,0,0,0,0,0c0,0,0,0,0,0c0,0,0,0.1,0,0.1l0,0c0,0,0.1,0,0.1,0.1c0,0.1,0,0.1-0.1,0.1
			c0,0.1,0,0.2-0.1,0.3c0,0,0,0.1-0.1,0.1v0c0.2,0,0.4-0.1,0.6-0.1c0.2,0,0.4,0,0.6,0.1c0.1,0,0.2,0,0.3,0c0.4,0,0.7-0.1,0.7-0.2
			c0,0-0.1,0-0.2,0c-0.1,0-0.2,0-0.3,0h0c-0.1,0-0.3,0-0.4,0c-0.2,0-0.3,0-0.4,0c-0.1,0-0.2-0.1-0.2-0.2c0-0.1,0.2-0.2,0.4-0.3
			c0,0,0,0,0,0c0.1,0,0.2-0.1,0.3-0.1c0.1,0,0.2,0,0.3,0h0c0.1,0,0.2,0,0.3,0c0.1,0,0.2,0,0.2,0c0,0.1-0.3,0.1-0.6,0.1
			c0.1,0,0.1,0,0.2,0c0.1,0,0.3,0,0.4-0.1l0,0c0.1,0,0.2,0,0.4,0c0.1,0,0.2,0,0.3,0.1c0,0-0.1,0-0.1,0c-0.2,0-0.4,0-0.5,0.1l-0.1,0
			c-0.2,0.1-0.5,0.1-0.7,0.1c-0.1,0-0.2,0-0.3,0c-0.1,0-0.1-0.1-0.1-0.1c-0.2,0.1-0.2,0.1-0.2,0.2c0,0.1,0.1,0.1,0.3,0.1
			c0.1,0,0.2,0,0.4,0h0c0.1,0,0.3,0,0.4,0c0.3,0,0.5,0.1,0.5,0.2c0,0,0,0.1,0,0.1c-0.2,0.2-0.5,0.2-0.8,0.2h-0.2
			c0,0.1,0.1,0.1,0.1,0.1c0.1,0,0.1,0.1,0.1,0.1c0,0,0,0,0,0.1c0,0,0,0.1-0.1,0.1c0,0,0,0,0,0c0,0,0.1,0.1,0.1,0.1h0
			c0,0-0.1,0.1-0.1,0.1c0,0,0,0,0,0c0,0,0,0,0,0c0,0,0,0,0,0c0,0,0,0,0,0c0,0,0,0,0,0c0,0,0,0,0,0c0,0,0,0,0,0l0,0c0,0,0,0,0,0
			c0,0,0,0.1,0,0.1c0,0,0,0-0.1,0c0,0,0,0-0.1,0l0,0c0,0,0,0,0,0c0,0,0,0,0,0c0,0,0,0,0,0.1c0,0,0,0.1-0.1,0.1h0c0,0,0,0,0,0
			c0,0,0,0,0,0.1c0,0-0.1,0-0.1,0c0,0,0,0,0-0.1l0,0c0,0,0,0,0,0c0,0,0-0.1,0.1-0.1c0,0,0,0,0,0l0,0c0,0,0,0,0,0c0,0,0,0-0.1,0h0
			c0,0,0,0,0,0c0,0,0,0,0,0c0,0,0,0,0,0c0,0-0.1,0-0.1,0.1c0,0,0,0,0,0c0,0,0,0,0-0.1c0,0,0,0,0,0c0,0,0,0,0,0c0,0,0,0,0.1,0
			c0,0,0,0,0.1,0c0,0,0,0,0,0c0,0,0,0,0,0l0,0l0,0c0,0,0,0,0,0c0,0,0,0,0,0h0c0,0-0.1,0-0.1,0c0,0,0-0.1,0.1-0.1c0,0,0,0,0,0
			c0,0,0,0,0.1,0c0,0,0.1,0,0.1,0.1l0,0l0,0c0,0,0,0,0.1,0c0,0,0.1,0,0.1-0.1c0,0,0,0,0,0c0,0,0,0,0,0c-0.1-0.1-0.2-0.1-0.2-0.1
			c0,0-0.1,0-0.2,0c-0.1,0-0.2,0-0.3,0c0.1,0.1,0.2,0.2,0.1,0.4c0,0.1,0,0.1,0,0.1c0.1,0.1,0.1,0.1,0.1,0.2c0,0,0,0,0,0
			c0,0-0.1,0-0.1,0h-0.1c0,0,0,0,0,0.1c0,0,0,0.1-0.1,0.1c0,0,0,0,0,0c0,0-0.1,0-0.1,0c0,0,0,0,0,0c0,0,0,0,0,0h0c0,0,0,0,0,0
			S36.1,37.1,36,37.1C36,37.1,36,37.1,36,37.1C36,37.1,36.1,37.1,36,37.1L36,37.1C36.1,37.1,36.1,37.1,36,37.1z M35.4,35.4
			C35.4,35.4,35.4,35.4,35.4,35.4C35.4,35.4,35.4,35.4,35.4,35.4C35.4,35.4,35.4,35.4,35.4,35.4L35.4,35.4c0,0.1,0,0.1,0,0.1
			c0,0,0,0-0.1,0c0,0,0,0,0,0l0,0v0v0c0,0,0,0,0,0.1c0,0,0,0,0,0.1c0,0,0,0,0,0c0,0,0.1,0,0.1-0.1c0,0,0,0,0-0.1c0,0,0,0,0-0.1
			c0,0,0,0,0,0c0,0,0,0,0,0l0,0c0,0,0,0,0,0c0,0,0,0,0,0c0,0,0,0,0,0c0,0,0,0,0,0c0,0,0,0,0,0c0,0,0,0,0,0l0,0c0,0,0,0,0,0
			c0,0,0,0,0,0L35.4,35.4C35.4,35.4,35.4,35.4,35.4,35.4C35.4,35.4,35.4,35.4,35.4,35.4L35.4,35.4L35.4,35.4
			C35.4,35.4,35.3,35.4,35.4,35.4L35.4,35.4L35.4,35.4L35.4,35.4C35.4,35.4,35.4,35.4,35.4,35.4z"/>
	</g>
	<g id="Fill_79">
		<path class="st0" d="M10.6,7.2c0-0.2-0.2-0.4-0.4-0.4S9.9,6.9,9.9,7.1c0,0.2,0.2,0.4,0.4,0.4c0,0,0,0,0,0
			C10.5,7.5,10.6,7.4,10.6,7.2"/>
	</g>
	<g id="Fill_81">
		<path class="st0" d="M10.5,6.1c0-0.2-0.2-0.4-0.4-0.4c-0.2,0-0.4,0.2-0.4,0.4c0,0.2,0.2,0.4,0.4,0.4S10.5,6.3,10.5,6.1"/>
	</g>
	<g id="Fill_83">
		<path class="st0" d="M10.7,5.6c0.2,0,0.4-0.2,0.4-0.4s-0.2-0.4-0.4-0.4S10.3,5,10.3,5.3c0,0,0,0,0,0C10.3,5.5,10.5,5.6,10.7,5.6"
			/>
	</g>
	<g id="Fill_85">
		<path class="st0" d="M11.8,5.6c0.2,0,0.4-0.2,0.4-0.4c0-0.2-0.2-0.4-0.4-0.4c-0.2,0-0.4,0.2-0.4,0.4c0,0,0,0,0,0
			C11.4,5.4,11.6,5.6,11.8,5.6C11.8,5.6,11.8,5.6,11.8,5.6"/>
	</g>
	<g id="Fill_87">
		<path class="st0" d="M16.2,4.9c0.2,0.1,0.4,0.1,0.6,0c0.2-0.2,0.2-0.4,0-0.5c-0.2-0.1-0.4-0.1-0.6,0C16.1,4.5,16.1,4.7,16.2,4.9"
			/>
	</g>
	<g id="Fill_89">
		<path class="st0" d="M16.1,4c0.1-0.2,0.1-0.4,0-0.5c-0.1-0.2-0.4-0.2-0.5,0c0,0,0,0,0,0c-0.2,0.2-0.2,0.4,0,0.5
			C15.7,4.2,16,4.2,16.1,4C16.1,4,16.1,4,16.1,4"/>
	</g>
	<g id="Fill_91">
		<path class="st0" d="M15.1,3.9c0.2-0.2,0.2-0.4,0-0.6c-0.2-0.1-0.4-0.1-0.6,0c-0.2,0.2-0.2,0.4,0,0.6C14.7,4,14.9,4,15.1,3.9"/>
	</g>
	<g id="Fill_93">
		<path class="st0" d="M14.2,4.5c0.2-0.2,0.2-0.4,0-0.5c0,0,0,0,0,0c-0.1-0.2-0.4-0.2-0.5,0c0,0,0,0,0,0c-0.2,0.2-0.2,0.4,0,0.6
			C13.8,4.7,14.1,4.7,14.2,4.5"/>
	</g>
	<g id="Fill_95">
		<path class="st0" d="M11.7,4L12,4.7l0.4-0.5c0,0,0,0,0,0c0,0.3,0,0.6,0,0.9c0,0.3,0.2,0.5,0.5,0.5c0.3,0,0.5-0.2,0.5-0.5
			c0-0.2-0.1-0.4-0.3-0.4c-0.2-0.2-0.4-0.3-0.6-0.5c0,0,0,0,0-0.1l0.7,0.1l-0.3-0.7l-0.5,0.4c0,0,0,0,0,0l0-0.7l-0.7,0.3l0.5,0.5
			c0,0,0,0,0,0.1L11.7,4z"/>
	</g>
	<g id="Fill_97">
		<path class="st0" d="M16.2,5.2c0.1,0.2,0.2,0.3,0.2,0.5c-0.2-0.1-0.3-0.2-0.4-0.4l0.1,0.9c0.1-0.1,0.2-0.2,0.3-0.3
			c0,0.6-0.3,0.8-0.5,0.9c-0.2,0-0.4-0.1-0.5-0.3c0-0.3,0.2-0.4,0.4-0.2c0-0.5-0.4-0.5-0.6-0.3c0.2-0.4,0.1-0.9-0.2-1.1
			c0,0-0.1,0-0.1-0.1c-0.3,0.4-0.2,0.9,0.2,1.2c0,0,0,0,0,0c-0.4-0.2-0.7,0.1-0.4,0.5c0.1-0.4,0.4-0.3,0.4,0
			c0.1,0.2-0.2,0.5-0.6,0.7c-0.6,0.2-0.7-0.2-0.9-0.5c0.1-0.1,0.4-0.1,0.7,0.1L14.3,6c-0.1,0.2-0.3,0.4-0.5,0.5
			c0-0.3,0.1-0.5,0.2-0.8l-1.1,0.4c0.2,0.1,0.5,0.3,0.7,0.4c-0.2,0.1-0.5,0.1-0.8,0l0.4,0.8c0.1-0.4,0.3-0.6,0.4-0.6
			c0.1,0.3,0.2,0.7-0.3,1C13.1,8,12.7,8,12.5,7.7c-0.1-0.2,0-0.5,0.3-0.3c0-0.5-0.5-0.5-0.6-0.1c0-0.5-0.1-0.8-0.7-1
			c-0.2,0.4,0,0.9,0.4,1c0,0,0.1,0,0.1,0c-0.3,0-0.6,0.3-0.2,0.6c0-0.3,0.3-0.4,0.4-0.2c0.1,0.2,0.1,0.4-0.1,0.5c0,0,0,0,0,0
			c-0.2,0.1-0.5,0.1-1-0.3c0.2,0,0.3,0,0.5,0l-0.6-0.7c0,0.2,0,0.4,0,0.5c-0.1-0.2-0.2-0.3-0.2-0.5l-0.4,0.4
			c0.6,0.4,1.1,0.9,1.5,1.5c0.8-0.5,1.6-0.8,2.4-1.2c0.8-0.3,1.7-0.6,2.5-0.8c-0.1-0.7-0.1-1.4,0-2.1L16.2,5.2z"/>
	</g>
	<g id="Fill_99">
		<path class="st0" d="M7,46.8L7,46.8c-0.3,0-0.6-0.1-0.7-0.4c-0.1-0.4-0.1-0.8,0.1-1.1c0.2-0.2,0.3-0.3,0.3-0.4
			c0-0.1-0.1-0.2-0.2-0.3c-0.1-0.1-0.2-0.1-0.3-0.1c-0.4,0-0.7,0.3-0.7,0.7c-0.4-0.5-0.4-1.2-0.2-1.9c0.2-0.6,0.3-1.2,0.1-1.8
			c-0.1,0.7-0.5,1.3-1.1,1.7c0.1-0.3,0-0.7-0.1-1C4,41.9,4,41.6,4,41.2c0-0.7,0.2-1.4,0.7-1.9c0.1-0.2,0.2-0.4,0.3-0.6
			c0-0.1,0-0.2-0.1-0.3c-0.1-0.2-0.2-0.4,0.1-0.7c0,0,0.1-0.1,0.1,0c0.1,0,0.3,0.1,0.4,0.1c0.1,0.1,0.2,0.1,0.4,0.1
			c1.2,0,2.1-1.6,2.3-3.3C8.3,33,9,31.3,9.9,29.9l0.1-0.1c0-0.3,0.1-0.5,0.1-0.7c-0.3,0.4-0.6,0.8-0.9,1.2c-0.5,0.9-1.1,1.7-1.9,2.4
			c0,0.4-0.1,0.8-0.4,1.1c-0.6,0.6-1.4,1-2.2,1c-0.4,0-0.9-0.1-1.2-0.4c0,0,0.1,0,0.1,0c0.7,0,1.3-0.3,1.6-0.9
			c-0.2,0-0.4-0.1-0.6-0.1c-0.2,0.1-0.5,0.2-0.7,0.2c-0.5,0-0.9-0.2-1.2-0.5c-0.2-0.2-0.3-0.5-0.3-0.8c0.2,0.3,0.5,0.4,0.8,0.4
			c0.1,0,0.3,0,0.4-0.1c-0.3-0.5-0.5-1-0.5-1.6c0-2,1.6-3.7,3.2-5.3C7.6,24,9,22.7,9,21.2c0.1-0.7-0.4-1.4-1.1-1.5
			c-0.1,0-0.1,0-0.2,0c-0.4,0-0.8,0.1-1.2,0.4c0.3,0.2,0.5,0.6,0.5,1c0,0.9-0.4,1.7-1.1,2.2c-0.7,0.5-1.5,0.9-2.3,1.2
			c-1.3,0.5-2.5,1-2.7,2.1c-0.1-0.6,0.1-1.3,0.5-1.7c0.4-0.4,0.8-0.7,1.3-1c0.8-0.5,1.7-0.9,1.8-2.1c-0.5,0.8-1.3,1.4-2.3,1.6
			c-0.2,0-0.3,0-0.4-0.1h0c0.9,0,1.2-0.9,1.5-1.8c0.4-1,0.7-2,1.8-2c0.2,0,0.5,0.1,0.7,0.1c0.5-0.4,1.2-0.7,1.8-0.8
			c0.5,0,1,0.2,1.4,0.5c0.5,0.4,0.8,1.1,0.8,1.8c0,1.9-1.6,3.5-3.1,5s-2.9,2.9-2.9,4.7c-0.1,0.8,0.5,1.6,1.3,1.7c0.1,0,0.2,0,0.3,0
			c1.4,0,2.6-1.8,3.8-3.9c0.6-1,1.2-2,1.9-2.9c0.9-1.6,1.7-3.3,2.2-5.1c0.3-1,0.7-2,1.1-3c-0.5,0.4-0.8,0.9-1.1,1.5
			c-0.4,0.8-0.8,1.5-1.5,1.6c0.4-0.3,0.4-1.1,0.4-1.9c0-0.6,0.1-1.3,0.2-1.9c0.2-0.5,0.2-1,0.1-1.5c-0.4,0.5-0.6,1.2-0.6,1.8
			c-0.2,1-0.4,2.1-1.2,2.3c0.3-0.4,0.2-0.9,0.1-1.5c-0.1-0.3-0.1-0.6-0.1-1c0-0.6,0.2-1.3,0.5-1.8c0.3-0.5,0.4-1.1,0.5-1.6
			c-0.3,0.1-0.5,0.5-0.6,1c-0.2,0.7-0.5,1.4-1.4,1.4H9.6c0.4-0.4,0.6-1,0.6-1.6c-0.1-0.7,0.2-1.4,0.7-1.9c-0.7-0.2-1.2-0.8-1.3-1.5
			c0.5-0.3,1-0.5,1.6-0.6c-0.2-0.4,0.1-0.7,0.4-1c0,0,0,0,0.1,0.1c0.1,0.1,0.2,0.3,0.3,0.3c0,0,0.1,0,0.1,0c0.7-0.5,1.5-0.9,2.3-1.3
			c0.8-0.3,1.7-0.6,2.5-0.8c0.2,0,0.2-0.3,0.1-0.5c0,0,0-0.1,0-0.1c0.1,0,0.2,0,0.2,0c0.5,0,0.7,0.2,0.8,0.5
			c0.4-0.3,0.9-0.5,1.5-0.5c0.3,0.7,0.4,1.4,0.1,2.1c0.3,0,0.6,0.1,0.9,0.3c0.2,0.2,0.5,0.2,0.8,0.3c0.1,0,0.2,0,0.2,0
			c-0.2,0.4-0.6,0.6-1,0.5c-0.2,0-0.4,0-0.6-0.1c-0.1,0-0.3,0-0.4-0.1c0.9,0.3,1.7,0.9,2.3,1.8c0.4,0.5,0.8,1,1.3,1
			c-0.2,0.2-0.5,0.3-0.8,0.3c-0.4-0.1-0.8-0.2-1.2-0.5h0c-0.3-0.3-0.7-0.4-1.1-0.5h0c1.1,0.5,2.1,1.3,2.7,2.4
			c0.3,0.4,0.5,0.7,0.8,0.7c-0.2,0.2-0.4,0.3-0.6,0.3c-0.3,0-0.7-0.2-0.9-0.3c-0.3-0.2-0.6-0.3-1-0.4c2.2,1.5,2.3,2.6,2.1,3.6
			c0.3,0.4,0.5,0.9,0.4,1.4c0,0.1,0,0.2,0,0.3c0.3-0.2,0.7-0.3,1-0.4c0.1,0,0.3-0.1,0.4-0.1c-0.1,0.1-0.3,0.3-0.4,0.4l0,0
			c-1.1,1.2-1.9,2.5-2.5,4c-0.5-0.5-1-1-1.2-1.2c-0.2-0.2-0.5-0.3-0.8-0.3c-0.1,0-0.1,0-0.2,0l-0.1,0c0.3,0.3,0.9,0.9,1.5,1.6
			c0.9,0.9,1.9,2,2.2,2.5c0.4,0.5,0.6,1,0.7,1.6c0,0.1,0,0.2,0,0.3c0.1,0.3,0.2,0.6,0.4,0.8c0.2,0.3,0.4,0.5,0.3,0.7
			c-0.1,0.2-0.1,0.5,0.1,0.6c0.1,0.1,0.1,0.2,0.1,0.4c0,0.4-0.3,0.7-0.9,0.9c0.2-0.2,0.2-0.6,0.1-0.8c-0.1-0.2-0.4-0.4-0.6-0.4
			c0.1,0.4,0,0.8-0.3,1.1c-0.2,0.2-0.4,0.3-0.7,0.3c-0.1,0-0.2,0-0.4-0.1c0.2,0,0.3-0.1,0.3-0.3c0.1-0.3,0.2-0.7,0-1
			c-0.2,0.5-0.6,0.8-1.1,0.8c-0.4,0-0.8-0.3-0.9-0.7C20.7,31,20.9,31,21,31c0.2,0,0.5-0.2,0.5-0.4c0-0.1-0.1-0.2-0.2-0.3
			C21.1,30.2,21,30,21,29.8c0-0.3,0.2-0.6,0.5-0.7c0.2-0.1,0.5-0.2,0.5-0.6c0-0.3-0.2-0.5-0.4-0.5s-0.5,0.1-0.6,0.6
			c-0.3-0.3-0.2-0.7-0.2-1.1c0.1-0.3,0-0.6,0-0.9c0.1,0.5-0.2,0.9-0.6,1.1c-0.1,0.1-0.3,0.2-0.4,0.3c-0.2-0.2-0.2-0.4-0.2-0.8
			c0-0.4,0-0.8-0.2-1.2c0,0.3-0.2,0.7-0.4,0.9c-0.1,0.1-0.2,0.3-0.2,0.5c-0.4-0.2-0.9-0.3-1.4-0.3c-0.7,0-1.4,0.2-1.9,0.6
			c0.4,0.3,0.8,0.6,1.2,0.8c1.3,0.9,2.4,1.6,2.4,3.1c0,0.9-0.7,1.4-1.4,1.9c-0.5,0.4-1,0.8-1,1.2c0.2,0.8,0.7,1.5,1.4,2
			c0.6,0.7,1.5,1.1,2.4,1.3c0.2,0,0.4-0.1,0.5-0.3c0.1-0.1,0.3-0.2,0.4-0.2c0.1,0,0.2,0,0.3,0c0.2,0,0.5,0,0.7,0
			c0.3,0,0.5,0.3,0.6,0.6c0.4,0.1,0.7,0.3,0.8,0.7c0.1,0.4,0,0.7-0.3,1c-0.1-0.4-0.4-0.7-0.8-0.7c-0.2,0-0.3,0.1-0.5,0.1
			c0.1,0.3,0.2,0.6,0,0.9c-0.2,0.3-0.5,0.6-0.8,0.6c0.2-0.2,0.2-0.6,0.1-0.8c-0.1-0.1-0.2-0.2-0.3-0.2c-0.2,0-0.3,0.1-0.3,0.1
			c-0.1,0.1-0.2,0.2-0.7,0.2H20c-0.5,0-0.6,0-0.8-0.4l-0.1-0.1c-0.3-0.5-0.6-0.7-0.8-0.7c0,0-0.1,0-0.1,0c-0.1,0.1-0.2,0.2-0.2,0.3
			c0,0.2,0.1,0.4,0.2,0.5c-1.2,0-1.4-0.7-1.6-1.5c-0.1-0.5-0.2-0.9-0.7-1.1c0.1,0.5,0.1,1,0,1.5c-0.6-0.5-1.1-1.1-1.3-1.9
			c0-0.1-0.1-0.3-0.1-0.4c0-0.3-0.1-0.6-0.4-0.8c-0.2-0.1-0.3-0.3-0.3-0.5c0-0.1,0.1-0.2,0.2-0.2c0.1,0,0.2-0.1,0.3-0.1
			c0.7-0.3,1-1,1-1.7c0.1-1.1-0.5-2.2-1.5-2.7c0.2,1.5,0,3.1-0.7,4.5c-0.9,1.4-2.2,2.5-3.7,3.1c-0.1,0.1-0.3,0.1-0.4,0.2
			c-0.9,0.3-1.9,0.7-1.9,1.8c0,2.4,1.1,3.8,2.1,3.8c0.2,0,0.5-0.1,0.6-0.3c0.2-0.3,0.5-0.5,0.9-0.4c0.4,0,0.9,0.2,1,0.5
			c0.1,0,0.1,0,0.2,0c0.5,0,0.9,0.3,0.9,0.7c0.1,0.4-0.2,0.8-0.6,0.9c0.1-0.1,0.1-0.3,0-0.5c-0.1-0.2-0.3-0.3-0.5-0.2
			c-0.1,0-0.2,0-0.2,0c-0.1,0.1-0.1,0.2,0,0.4c0.1,0.1,0.1,0.3,0.1,0.4c0,0.4-0.1,0.8-0.8,1c0.1-0.1,0.1-0.3,0.1-0.4
			c-0.1-0.1-0.2-0.2-0.3-0.1c-0.2,0-0.4,0.2-0.5,0.3c-0.1,0.2-0.4,0.4-0.6,0.4c-0.3,0-0.6-0.1-0.9-0.1c-0.2-0.1-0.4-0.1-0.7-0.1
			c-0.1,0-0.3,0-0.4,0c-0.4,0.1-0.5,0.3-0.5,0.3C6.9,46.6,7,46.7,7,46.8C7,46.8,7,46.8,7,46.8z M15.7,13.2c0.2,0,0.4,0.1,0.4,0.3
			c0.2,0.3,0.1,0.7-0.2,0.9c-0.2,0.2-0.1,0.5,0.1,0.9c0.1,0.4,0.5,0.8,1,0.8c0.1,0,0.3,0,0.4-0.1c0.3-0.1,0.5-0.3,0.6-0.6
			c0.1-0.3,0.1-0.6-0.1-0.9c-0.2-0.4-0.4-0.7-0.6-0.7c-0.4,0-0.7-0.1-0.8-0.5c-0.1-0.4,0.2-0.6,0.6-0.8c0.1,0,0.1-0.1,0.2-0.1
			c-0.3-0.1-0.5-0.2-0.5-0.3c0-0.1,0-0.1,0.1-0.2c0.1,0,0.1-0.1,0.2-0.1c0.1,0,0.2,0,0.3,0.1l0,0c0.1,0,0.1,0,0.2,0.1
			c0,0,0.1,0,0.1-0.1c0.1-0.1-0.1-0.3-0.2-0.4l0,0c0,0-0.1-0.1-0.1-0.1c-0.1-0.1-0.2-0.1-0.3-0.1c-0.1,0-0.2,0-0.4,0.1l-2,0.8
			c-0.3,0.1-0.4,0.2-0.4,0.5c0,0.1,0,0.1,0,0.2v0c0,0.2,0,0.4,0.1,0.4c0,0,0,0,0,0c0.1,0,0.1-0.1,0.2-0.2c0.1-0.2,0.2-0.3,0.4-0.4
			c0,0,0,0,0.1,0c0.1,0,0.1,0,0.2,0.1c0.1,0.1,0,0.3-0.1,0.6l0.2,0l0,0h0C15.3,13.3,15.5,13.2,15.7,13.2L15.7,13.2z M14.3,10.5
			L14.3,10.5L14.3,10.5c-0.8,0.3-1.5,0.6-2.3,0.8c0.3,0.1,0.7,0.2,0.9,0.5c0.1,0.1,0.3,0.2,0.5,0.2h0.1c0.2,0,0.5-0.1,0.6-0.3
			C14.3,11.3,14.4,10.8,14.3,10.5L14.3,10.5z M18.1,8.8c-0.6,0.3-1.2,0.6-1.8,0.9l0,0l-0.3,0.1c0.2,0.4,0.6,0.7,1.1,0.7
			c0.2,0,0.4-0.1,0.5-0.2c0.2-0.1,0.3-0.3,0.3-0.6C17.8,9.4,17.9,9.1,18.1,8.8z"/>
	</g>
	<g id="Fill_101">
		<path class="st0" d="M64.7,41.4c-0.9,0-1.7-0.8-1.7-1.7s0.8-1.7,1.7-1.7c0.9,0,1.7,0.8,1.7,1.7C66.4,40.6,65.7,41.4,64.7,41.4z
			 M64.7,38.4c-0.7,0-1.3,0.6-1.3,1.2S64,41,64.7,41s1.3-0.6,1.3-1.2c0,0,0,0,0,0C66,39,65.4,38.5,64.7,38.4z"/>
	</g>
	<g id="Fill_103">
		<path class="st0" d="M57.7,43.2L57.7,43.2c-0.1,0-0.2,0-0.3,0c-0.3-0.1-0.6-0.2-0.8-0.5c-0.2-0.2-0.3-0.5-0.3-0.8
			c0.1-0.3,0.2-0.5,0.4-0.6c0.2-0.2,0.5-0.2,0.8-0.2c0.1,0,0.2,0,0.3,0c0.4,0.1,0.7,0.3,0.9,0.6c0.1,0.2,0.2,0.5,0.2,0.7
			c-0.1,0.3-0.3,0.6-0.5,0.7C58.2,43.2,58,43.2,57.7,43.2z M57.6,41.5c-0.2,0-0.4,0-0.5,0.2c-0.1,0.1-0.2,0.2-0.2,0.3
			c0,0.1,0,0.3,0.1,0.4c0.2,0.2,0.4,0.4,0.7,0.4c0.1,0,0.1,0,0.2,0c0.3,0,0.7-0.2,0.8-0.5v0c0,0,0,0,0-0.1c-0.1-0.4-0.4-0.7-0.8-0.7
			C57.7,41.5,57.6,41.5,57.6,41.5z"/>
	</g>
	<g id="Fill_105">
		<path class="st0" d="M47.9,19.5c-0.3,0-0.6-0.1-0.7-0.3c-0.1-0.2-0.2-0.4-0.2-0.7c0.1-0.3,0.2-0.6,0.5-0.8
			c0.2-0.2,0.5-0.3,0.8-0.3c0,0,0.1,0,0.1,0c0.2,0,0.4,0.1,0.6,0.3c0.1,0.2,0.2,0.4,0.2,0.7c-0.1,0.3-0.2,0.7-0.5,0.9
			C48.5,19.4,48.2,19.5,47.9,19.5z M48.3,17.7c-0.2,0-0.4,0.1-0.6,0.2c-0.2,0.2-0.3,0.4-0.4,0.6c0,0.1,0,0.2,0.1,0.3
			c0.1,0.1,0.2,0.2,0.4,0.2c0.2,0,0.4-0.1,0.6-0.2c0.2-0.1,0.3-0.3,0.4-0.6c0-0.1,0-0.3-0.1-0.4C48.6,17.8,48.5,17.8,48.3,17.7
			C48.3,17.7,48.3,17.7,48.3,17.7z"/>
	</g>
	<g id="Fill_107">
		<path class="st0" d="M55.5,40.8L55.5,40.8c-0.3,0-0.5-0.1-0.7-0.3c-0.3-0.3-0.4-0.6-0.4-1v0c0-0.4,0.1-0.7,0.4-1
			c0.2-0.2,0.4-0.3,0.7-0.3c0.3,0,0.6,0.2,0.8,0.4c0.2,0.3,0.3,0.6,0.3,0.9c0,0.4-0.2,0.7-0.4,1C55.9,40.7,55.7,40.8,55.5,40.8z
			 M55.4,38.6c-0.1,0-0.3,0.1-0.4,0.2c-0.2,0.2-0.3,0.4-0.3,0.7c0,0.3,0.1,0.5,0.3,0.7c0.1,0.1,0.2,0.2,0.4,0.2
			c0.1,0,0.3-0.1,0.4-0.2c0.2-0.2,0.3-0.4,0.3-0.7c0-0.3-0.1-0.5-0.3-0.7C55.7,38.7,55.6,38.6,55.4,38.6L55.4,38.6z"/>
	</g>
	<g id="Fill_109">
		<path class="st0" d="M47.3,27c-0.2,0-0.5-0.1-0.7-0.2c-0.3-0.2-0.6-0.4-0.7-0.8c-0.1-0.2-0.1-0.5,0-0.8c0.1-0.2,0.3-0.4,0.6-0.5
			c0.1,0,0.3-0.1,0.4-0.1c0.2,0,0.5,0.1,0.7,0.2c0.3,0.2,0.6,0.4,0.8,0.8c0.1,0.2,0.1,0.5,0,0.8c-0.1,0.2-0.3,0.4-0.6,0.5
			C47.6,27,47.5,27,47.3,27z M47,25.2c-0.1,0-0.2,0-0.3,0c-0.1,0-0.3,0.1-0.3,0.3c-0.1,0.2-0.1,0.4,0,0.5c0.1,0.2,0.3,0.3,0.5,0.4
			c0.2,0.1,0.3,0.1,0.5,0.1c0.1,0,0.2,0,0.3,0c0.1,0,0.3-0.1,0.3-0.3c0.1-0.1,0.1-0.3,0-0.4c-0.1-0.2-0.3-0.4-0.5-0.6
			C47.3,25.2,47.1,25.2,47,25.2z"/>
	</g>
	<g id="Fill_111">
		<path class="st0" d="M57.7,46.9c-0.1,0-0.1,0-0.2,0c0.1-0.2,0.1-0.4,0.2-0.7c0.1-0.4,0.2-0.9,0.4-1.3c-0.4,0.3-0.6,0.7-0.7,1.2
			c-0.1,0.4-0.3,0.6-0.5,0.6c-0.1,0-0.2,0-0.3-0.1c0.2-0.2,0.3-0.4,0.4-0.6c0.3-0.6,0.7-1.2,1.2-1.6l0.1-0.1c0.6-0.3,1-1,1.1-1.7
			c0.1-0.6,0.1-1.3,0-1.9c0-0.3-0.1-0.6-0.1-0.9c0-0.9-0.3-1.1-0.6-1.1c-0.1,0-0.1,0-0.2,0c-0.1,0-0.1,0-0.2,0
			c-0.9,0-4.2-2.2-4.2-4.3c0-0.2,0-0.5,0-0.7h-0.1c-1.6,0-2.2,0.5-2.2,1.8c-0.1,0.5,0.1,0.9,0.4,1.2c0.2,0.1,0.3,0.3,0.3,0.4
			c0,0.1-0.1,0.2-0.3,0.3c-0.6,0.3-5.1,2.1-5.2,2.2c-0.1,0-0.2,0.1-0.4,0.1c-0.2,0-0.3-0.1-0.4-0.3c0,0-0.1-0.1-0.1-0.1
			c-0.1-0.2-0.3-0.3-0.5-0.3c-0.1,0-0.2,0-0.3,0.1c0,0-0.1,0.1-0.1,0.1c0,0.1,0.1,0.2,0.1,0.3c0.1,0.1,0.2,0.2,0.2,0.4
			c0,0.7-0.6,1-1.8,1c-0.2,0-0.3,0-0.5,0l0.5-0.9c0.1-0.2,0.2-0.4,0.2-0.5c0,0,0,0,0,0h0c-0.1,0-0.2,0.2-0.4,0.4l-0.1,0.1l-0.6,0.8
			h-0.1c-0.2,0-0.4,0-0.6-0.1c0.4-0.4,0.8-0.8,1-1c0.2-0.2,0.5-0.5,0.7-0.7c0.5-0.5,1.2-0.8,1.9-0.8l0.1,0h0
			c1.3-0.2,4.6-0.7,4.6-1.8c0-0.5-0.3-1-0.7-1.3c-0.5-0.4-0.9-1.1-0.8-1.8c-0.1-0.8,0.2-1.6,0.8-2.2c0.8-0.7,2-1,3.9-1h0.3
			c-0.5-1-1.4-1.8-2.5-2c-0.9-0.2-1.7-0.7-2.2-1.4c-0.4-0.6-0.7-1.4-0.7-2.2c-0.3,0-0.7,0-1,0l-0.7,0c-0.5,0-0.9-0.1-1.4-0.2
			c-0.2-0.1-0.4-0.1-0.6-0.1c-0.1,0-0.2,0-0.3,0.1c-0.2,0.1-0.2,0.4-0.1,0.6c0,0,0,0,0,0c0.1,0.1,0.1,0.2,0.2,0.4
			c0.2,0.4,0.5,0.9,0.8,1.3l0,0c0.3,0,0.7,0.1,0.7,0.4c0,0.2,0,0.3-0.2,0.4c-0.1,0-0.1,0.1-0.1,0.2c0,0.1,0,0.1,0,0.2
			c0,0.1,0.1,0.1,0.2,0.1c0.1,0,0.2,0,0.2-0.1c0-0.1,0.1-0.1,0-0.2c0.1-0.1,0.3-0.1,0.5-0.1c0.2,0,0.4,0,0.6,0.1
			c0.5,0.4,0.8,1,1,1.6c-0.5-0.2-1-0.4-1.5-0.5c-0.1,0-0.2,0-0.2,0s0.1,0.1,0.2,0.1c0.4,0.1,0.7,0.3,1,0.5l0,0.6
			c-0.6-0.4-1.2-0.7-1.8-1l-0.1,0c-0.6-0.1-1.1-0.6-1.3-1.1c-0.3-0.8-1.2-2.4-1.7-3.2c-0.3-0.4-0.2-0.6,0-0.8
			c0.1-0.1,0.2-0.3,0.3-0.4l0.1-0.1c0.2-0.2,0.2-0.3,0.4-0.3c0.1,0,0.1,0,0.2,0c0,0,0.1,0,0.2,0c0.1,0,0.4,0,0.6,0
			c0.3,0,0.7,0,1-0.1c0.1,0,0.2-0.1,0.3-0.1c-0.9-1-2-2.4-2.1-2.5c-0.1-0.2-0.3-0.4-0.6-0.4c-0.2,0-0.3,0-0.5,0.1c0,0-0.1,0-0.1,0.1
			c0,0-0.1,0.1-0.1,0.1c-0.1-0.1-0.2-0.2-0.2-0.3c-0.2-0.2-0.3-0.3-0.5-0.5c0.3-0.2,0.6-0.5,0.8-0.6c0.1,0,0.1-0.1,0.1-0.1
			c0.1-0.1,0.2-0.2,0.4-0.2c0.1,0,0.2,0,0.4,0c0.1,0,0.2,0,0.2,0c0.2,0,0.4,0.1,0.6,0.2c0.4,0.4,0.8,0.7,1.2,1l0.1,0.1l0.1,0
			l0.1,0.1c0,0,0.1-0.1,0.1-0.1c0.2-0.2,0.4-0.2,0.6-0.2h0c0.2,0,0.5,0.1,0.6,0.3c0.2,0.3,0.3,0.6,0.3,0.9c0,0.1,0,0.2-0.1,0.4
			c0.3,0.3,0.7,0.6,1,0.9c0.2-1.2,0.7-2.4,1.5-3.4l-0.1-0.1v0c0-0.1,0.1-0.2,0.1-0.2c0.1-0.4,0.3-1.1,0.5-1.5l0.1-0.4
			c0.1-0.2,0.1-0.2,0.1-0.2l0.1-0.3l1.3,0.5c0,0,0.1-0.1,0.1-0.1c0.5-0.4,1-0.8,1.6-1.1c1.2-0.7,2.4-1.3,2.4-2.4
			c0-0.5-0.2-0.9-0.5-1.2c0.2,0.3,0.2,0.6,0.2,0.9c-0.1,0.3-0.3,0.6-0.5,0.8c-0.4,0.3-0.8,0.5-1.3,0.5c-0.3,0-0.7-0.2-0.9-0.4
			c-0.1-0.1-0.2-0.2-0.3-0.2c-0.2,0-0.3,0.1-0.5,0.2c0,0.8-0.3,1.3-0.6,1.3c0.1-0.3,0.1-0.6,0-0.8c0,0,0,0,0,0c0,0,0,0,0,0
			c-0.1,0.1-0.2,0.2-0.2,0.7c0,0.6-0.5,1.1-1.1,1.2c0.1-0.2,0.3-1,0.2-1.1c0,0,0,0-0.1,0c-0.1,0-0.2,0.1-0.2,0.1
			C49.8,15,49.7,15,49.6,15c-0.2,0-0.3-0.2-0.3-0.4c0-0.1-0.1-0.1-0.2-0.1H49c-0.1,0-0.2,0-0.2-0.1c0,0,0-0.1,0-0.1
			c0.2-0.3,0.5-0.5,0.8-0.6c0.2-0.1,0.8-0.3,0.9-0.6c0,0,0-0.1,0-0.1c0-0.1-0.2-0.2-0.3-0.1c-0.6,0.1-1.2,0.4-1.7,0.7
			c-0.1,0.1-0.3,0.2-0.4,0.2c0,0-0.1,0-0.1,0c-0.1-0.1,0-0.2,0-0.3c0-0.1,0-0.2,0-0.3c-0.3-0.6-0.1-0.8,0.2-1c0,0,0.1-0.1,0.1-0.1
			c0.7-0.6,1.6-1.2,2.4-1.6c0-0.3,0.2-0.6,0.5-0.7c0.2-0.1,0.4-0.1,0.6-0.2c0.2-0.1,0.5-0.2,0.7-0.3l-5.7-7.1
			c-0.2-0.2-0.1-0.3-0.1-0.3c0,0,0,0,0.1,0C47,2,47.1,2,47.2,2.2l6.6,6.5c0.2-0.5,0.3-1,0.1-1.6c0.8,0.4,1.4,1.1,1.6,1.9h0.1
			c0.6,0,1.3,0.1,1.8,0.4c0.1,0.1,0.2,0.1,0.3,0.2c0.2,0.1,0.4,0.2,0.7,0.3c0.1,0,0.2,0,0.3-0.1c0,0.1,0,0.2-0.1,0.3
			c-0.2,0.2-0.5,0.4-0.8,0.4c0.9,0.2,1.6,0.8,2,1.6c0.2,0.4,0.5,0.8,1,0.9c-0.1,0.2-0.3,0.3-0.6,0.2c-0.1,0-0.3,0-0.4-0.1
			c0.6,0.8,0.8,1.9,0.7,2.9c0,0.7-0.1,1.2,0.4,1.7c-0.1,0-0.1,0-0.2,0c-0.5-0.1-1-0.4-1.3-0.9c0.2,0.8,0.2,1.5,0.1,2.3
			c-0.1,0.4-0.1,0.8,0,1.2c-0.1,0-0.1,0-0.2,0c-0.4,0-0.7-0.4-0.8-1c-0.1,0.4-0.2,0.7-0.4,1.1l0.5,0.4L58.7,21v0l-0.1,0.1
			c-0.9,0.9-1.3,1.4-1.5,1.6L57,22.9l0,0c0,0-0.2-0.1-0.2-0.1c-0.6,0.5-0.9,1.2-1,2c0,0.8,1,2.2,2.1,3.6c-0.1-0.1-0.1-0.3-0.1-0.4v0
			c0-0.5,0.4-0.9,0.9-0.9c0,0,0,0,0,0h0c0.8,0.1,1.4,0.7,1.4,1.4v0c0,0.5-0.4,0.9-1,0.9h0c-0.3,0-0.5-0.1-0.8-0.3l0,0
			c0.7,0.8,1.3,1.7,1.8,2.7c0.8,1.7,1.5,2.4,2.3,2.4c1,0,1.8-0.8,1.8-1.7c0,0,0-0.1,0-0.1c0-1.9-1.2-2.9-2.4-4
			c-1.3-1.1-2.6-2.3-2.6-4.6c0-0.9,0.3-1.7,1-2.3c0.5-0.4,1.1-0.7,1.8-0.7c0.6,0,1.2,0.2,1.6,0.6c0.1,0,0.3,0,0.4,0
			c1.3,0,1.4,0.9,1.6,1.8c0.1,0.8,0.3,1.5,1.1,1.6c-0.2,0.1-0.4,0.1-0.5,0.1c-0.8,0-1.5-0.7-1.9-1.8c0.1,1.2,0.9,2.2,2,2.5
			c0.8,0.4,1.5,0.8,1.3,1.9c0-0.6-0.9-0.9-1.8-1.3c-1.4-0.5-3.1-1.2-3.2-3c0-0.5,0.1-1,0.5-1.4c-0.2-0.2-0.5-0.3-0.8-0.3
			c-1.2,0.1-2.1,1.1-2.1,2.3c0,1.8,1.2,2.9,2.4,4c1.3,1.1,2.6,2.3,2.6,4.4c0,0.8-0.3,1.6-0.9,2.1c0,0,0.1,0,0.1,0
			c0.5,0,0.9-0.2,1.2-0.5c-0.2,0.8-0.8,1.4-1.7,1.4c-0.4,0-0.7-0.1-0.9-0.4l0,0c0,0-0.1,0-0.1,0c0,0-0.1,0-0.1,0c-0.1,0-0.3,0-0.4,0
			c0.4,0.8,0.9,1.2,1.4,1.2c0.1,0,0.1,0,0.2,0c-0.3,0.3-0.7,0.4-1.1,0.4c-0.6,0-1.1-0.3-1.4-0.7c-0.4-0.5-0.6-1.1-0.5-1.8
			c-0.4-0.5-0.7-1-0.9-1.5c-0.1-0.1-0.1-0.2-0.2-0.2c0,0-0.1,0-0.1,0c-0.1,0.1-0.1,0.3-0.1,0.4c0,0.7-0.2,1.4-0.5,2
			c-0.2,0.4-0.4,0.9-0.4,1.4c0,0.5,0.2,0.9,0.5,1.3c0.2,0.3,0.5,0.5,0.8,0.6c0.2,0,0.3-0.1,0.4-0.2c0.1-0.1,0.2-0.1,0.3-0.1
			c0,0,0.1,0,0.1,0c0.2,0.1,0.2,0.4,0.2,1v0c0,0.4,0,1.2,0.1,2.1c0,0.2,0,0.5,0,0.7c0.1-0.3,0.3-0.6,0.6-0.8
			c0.2-0.2,0.5-0.3,0.8-0.3c0.1,0,0.2,0,0.3,0c0.3,0,0.5,0.2,0.6,0.4c0.1,0.2,0.2,0.3,0.2,0.5c0,0.1,0,0.1,0,0.2
			c-0.1,0.4-0.3,0.7-0.6,0.9c-0.2,0.2-0.5,0.3-0.8,0.3c0,0-0.1,0-0.1,0c-0.3,0-0.6-0.2-0.8-0.4c0,0-0.1-0.1-0.1-0.1l0,0.3
			c0,0.3,0,0.5,0,0.8c0,0.8-0.2,1.2-0.6,1.5c-0.1-0.2-0.4-0.4-0.6-0.4c-0.2,0-0.4,0.1-0.5,0.4c0,0.1,0.1,0.3,0.2,0.4
			c0.2,0.1,0.3,0.4,0.3,0.6C59.7,46.2,58.5,46.9,57.7,46.9z M62.2,40.9c-0.2,0-0.4,0.1-0.6,0.2c-0.2,0.1-0.4,0.4-0.4,0.6
			c0,0.1,0,0.3,0.1,0.4c0.1,0.2,0.3,0.3,0.5,0.2c0.2,0,0.4-0.1,0.6-0.2c0.2-0.1,0.4-0.4,0.5-0.6c0-0.1,0-0.3-0.1-0.4
			c-0.1-0.1-0.2-0.2-0.4-0.2C62.4,40.9,62.3,40.9,62.2,40.9L62.2,40.9z M56.4,34.4c-0.3,0-0.6,0.2-0.7,0.4c-0.3,0.3-0.3,0.8,0.1,1.1
			c0.1,0.1,0.2,0.1,0.3,0.1c0.3,0,0.6-0.2,0.7-0.4c0.3-0.3,0.3-0.8-0.1-1.1C56.6,34.5,56.5,34.4,56.4,34.4L56.4,34.4z M58.4,31.3
			c-0.3,0-0.6,0.2-0.7,0.4c-0.3,0.3-0.3,0.8,0.1,1.1c0.1,0.1,0.2,0.1,0.3,0.1c0.3,0,0.6-0.2,0.7-0.4c0.3-0.3,0.3-0.8,0-1.1
			C58.6,31.3,58.5,31.3,58.4,31.3L58.4,31.3z M58.8,27.3c-0.1,0-0.3,0-0.4,0.1c-0.1,0.1-0.2,0.2-0.2,0.4c0,0.3,0.1,0.5,0.3,0.7
			c0.2,0.2,0.4,0.3,0.7,0.3c0.1,0,0.3,0,0.4-0.1c0.1-0.1,0.2-0.2,0.2-0.4c0-0.3-0.1-0.5-0.3-0.7C59.3,27.5,59,27.3,58.8,27.3
			L58.8,27.3z M50.6,16.3C50.6,16.3,50.6,16.3,50.6,16.3L50.6,16.3L50.6,16.3c-0.3,1-0.5,1.8-0.7,2.2l7,4c0.5-0.5,1.5-1.6,1.6-1.7
			l-0.6-0.5c0,0.3,0,0.6-0.1,0.9c-0.2-0.1-0.3-0.4-0.3-0.6L57,21.2c0.2,0,0.5,0.1,0.6,0.2c-0.1,0.2-0.3,0.3-0.6,0.3
			c-0.2,0-0.4-0.1-0.6-0.2c-0.5-0.3-0.6-0.5-0.5-0.8c0.1-0.1,0.2-0.2,0.3-0.2c0.2,0,0.4,0.2,0.4,0.4c0.2-0.1,0.3-0.2,0.4-0.3
			c0-0.1,0-0.2,0-0.4c-0.1-0.1-0.2-0.2-0.4-0.2c-0.1,0-0.2,0-0.2,0c0.6-0.2,0.9-0.8,0.7-1.4c-0.6,0.1-1,0.5-1.1,1.1
			c0-0.3-0.2-0.5-0.4-0.5h0c-0.1,0-0.2,0-0.3,0.1c-0.1,0.1-0.2,0.3-0.1,0.5c0.1,0,0.1,0,0.2,0c0.1,0,0.3,0.1,0.4,0.2
			c0.1,0.1,0.1,0.2,0,0.3c-0.1,0.1-0.2,0.2-0.3,0.2c-0.2,0-0.4-0.1-0.6-0.2c-0.4-0.2-0.6-0.7-0.4-1.1c0,0,0-0.1,0.1-0.1
			c0.2,0.2,0.3,0.4,0.2,0.7l0.6-0.9C55.1,19,55,19,54.9,19c-0.1,0-0.2,0-0.3-0.1l0,0c0.2-0.3,0.5-0.4,0.8-0.5l-1.1-0.6
			c0.1,0.3,0.1,0.6,0,0.9l0,0c-0.2-0.1-0.3-0.3-0.3-0.6l-0.5,1c0.2-0.1,0.3-0.2,0.5-0.2c0.1,0,0.1,0,0.2,0c-0.1,0.3-0.4,0.4-0.7,0.5
			c-0.2,0-0.3-0.1-0.5-0.1c-0.5-0.3-0.6-0.5-0.5-0.8c0.1-0.1,0.2-0.2,0.3-0.2c0.2,0,0.4,0.2,0.4,0.4c0.2-0.1,0.3-0.2,0.3-0.4
			c0-0.1,0-0.2-0.1-0.3c-0.1-0.1-0.2-0.2-0.3-0.2c-0.1,0-0.2,0-0.3,0.1c0.5-0.3,0.7-1,0.4-1.5c-0.6,0.2-0.9,0.7-0.9,1.3
			c-0.1-0.3-0.2-0.5-0.4-0.5c-0.1,0-0.2,0-0.3,0.1c-0.1,0.1-0.1,0.3-0.1,0.5c0.1,0,0.1,0,0.2,0c0.1,0,0.3,0.1,0.3,0.2
			c0.1,0.1,0.1,0.2,0,0.3c-0.1,0.1-0.2,0.2-0.3,0.1c-0.2,0-0.4-0.1-0.6-0.2c-0.4-0.1-0.6-0.6-0.5-1c0,0,0,0,0,0
			c0.2,0.1,0.4,0.3,0.5,0.5l0.3-0.8c-0.1,0.1-0.2,0.1-0.4,0.1c-0.1,0-0.2,0-0.3-0.1c0.2-0.2,0.5-0.4,0.7-0.5L50.6,16.3L50.6,16.3z
			 M46.3,20c-0.1,0-0.2,0-0.3,0.1c-0.2,0.2-0.3,0.4-0.3,0.6v0.1c0,0.4,0.2,0.7,0.5,0.7c0.1,0,0.2,0,0.3-0.1c0.2-0.2,0.3-0.4,0.3-0.6
			c0-0.2,0-0.4-0.2-0.6C46.6,20.1,46.5,20,46.3,20L46.3,20z M52.1,10.5c-0.6,0-0.6,0.3-0.7,0.7v0c0,0.2-0.1,0.3-0.1,0.4
			c0.6-0.3,1.4-0.5,2.1-0.6c-0.2-0.1-0.4-0.2-0.6-0.3C52.6,10.7,52.4,10.6,52.1,10.5L52.1,10.5z"/>
	</g>
</g>
<g class="st1">
	<path class="st0" d="M102.7,9.2c1.4,0,2.5,0.4,3.3,1.1s1.1,1.8,1.1,3.1c0,1.3-0.4,2.4-1.1,3.1c-0.7,0.7-1.8,1.1-3.3,1.1h-4.4v5.8
		h-1.9V9.2H102.7z M102.1,16.1c1.1,0,1.9-0.2,2.4-0.7s0.8-1.1,0.8-2c0-0.9-0.2-1.5-0.8-2c-0.5-0.4-1.3-0.7-2.4-0.7h-3.7v5.2H102.1z"
		/>
	<path class="st0" d="M110.9,9.2v14.3h-1.7V9.2H110.9z"/>
	<path class="st0" d="M122.7,23.5c-0.3,0.2-0.7,0.3-1.2,0.3c-0.4,0-0.8-0.1-1-0.4c-0.3-0.2-0.4-0.6-0.4-1.2c-0.5,0.6-1,1-1.6,1.2
		c-0.6,0.2-1.3,0.4-2,0.4c-0.5,0-0.9-0.1-1.3-0.2c-0.4-0.1-0.8-0.3-1.1-0.5c-0.3-0.2-0.5-0.5-0.7-0.9c-0.2-0.4-0.3-0.8-0.3-1.3
		c0-0.6,0.1-1.1,0.3-1.4s0.5-0.7,0.8-0.9s0.7-0.4,1.1-0.5s0.8-0.2,1.3-0.3c0.5-0.1,0.9-0.2,1.3-0.2s0.8-0.1,1.1-0.2
		c0.3-0.1,0.6-0.2,0.8-0.4c0.2-0.2,0.3-0.4,0.3-0.7c0-0.4-0.1-0.7-0.2-0.9c-0.1-0.2-0.3-0.4-0.5-0.5c-0.2-0.1-0.5-0.2-0.7-0.2
		c-0.3,0-0.5-0.1-0.8-0.1c-0.7,0-1.3,0.1-1.8,0.4c-0.5,0.3-0.7,0.8-0.8,1.5h-1.7c0-0.6,0.2-1.2,0.4-1.6c0.2-0.4,0.6-0.8,1-1.1
		c0.4-0.3,0.9-0.5,1.4-0.6c0.5-0.1,1.1-0.2,1.7-0.2c0.5,0,0.9,0,1.4,0.1c0.5,0.1,0.9,0.2,1.2,0.4c0.4,0.2,0.7,0.5,0.9,0.9
		c0.2,0.4,0.3,0.9,0.3,1.5v5.3c0,0.4,0,0.7,0.1,0.9c0,0.2,0.2,0.3,0.5,0.3c0.1,0,0.3,0,0.5-0.1V23.5z M120,18.2
		c-0.2,0.2-0.5,0.3-0.8,0.3s-0.7,0.1-1.1,0.2c-0.4,0-0.8,0.1-1.2,0.2s-0.7,0.2-1,0.3c-0.3,0.1-0.6,0.3-0.8,0.6
		c-0.2,0.2-0.3,0.6-0.3,1c0,0.3,0.1,0.5,0.2,0.7s0.3,0.3,0.4,0.5s0.4,0.2,0.6,0.3s0.5,0.1,0.8,0.1c0.6,0,1-0.1,1.4-0.2
		c0.4-0.2,0.7-0.3,1-0.6c0.3-0.2,0.4-0.5,0.6-0.8c0.1-0.3,0.2-0.5,0.2-0.8V18.2z"/>
	<path class="st0" d="M125.9,13.2v1.6h0c0.7-1.3,1.8-1.9,3.4-1.9c0.7,0,1.2,0.1,1.7,0.3c0.5,0.2,0.8,0.4,1.1,0.8
		c0.3,0.3,0.5,0.7,0.6,1.2s0.2,1,0.2,1.5v6.8h-1.7v-7c0-0.6-0.2-1.1-0.6-1.5c-0.4-0.4-0.9-0.6-1.5-0.6c-0.5,0-1,0.1-1.3,0.2
		c-0.4,0.2-0.7,0.4-1,0.7c-0.3,0.3-0.4,0.6-0.6,1c-0.1,0.4-0.2,0.8-0.2,1.3v5.8h-1.7V13.2H125.9z"/>
	<path class="st0" d="M137,13.2v1.6h0c0.7-1.3,1.8-1.9,3.4-1.9c0.7,0,1.2,0.1,1.7,0.3c0.5,0.2,0.8,0.4,1.1,0.8
		c0.3,0.3,0.5,0.7,0.6,1.2s0.2,1,0.2,1.5v6.8h-1.7v-7c0-0.6-0.2-1.1-0.6-1.5c-0.4-0.4-0.9-0.6-1.5-0.6c-0.5,0-1,0.1-1.3,0.2
		s-0.7,0.4-1,0.7c-0.3,0.3-0.4,0.6-0.6,1c-0.1,0.4-0.2,0.8-0.2,1.3v5.8h-1.7V13.2H137z"/>
	<path class="st0" d="M146.7,11.3V9.2h1.7v2.1H146.7z M148.4,13.2v10.3h-1.7V13.2H148.4z"/>
	<path class="st0" d="M152.6,13.2v1.6h0c0.7-1.3,1.8-1.9,3.4-1.9c0.7,0,1.2,0.1,1.7,0.3c0.5,0.2,0.8,0.4,1.1,0.8
		c0.3,0.3,0.5,0.7,0.6,1.2s0.2,1,0.2,1.5v6.8h-1.7v-7c0-0.6-0.2-1.1-0.6-1.5c-0.4-0.4-0.9-0.6-1.5-0.6c-0.5,0-1,0.1-1.3,0.2
		s-0.7,0.4-1,0.7c-0.3,0.3-0.4,0.6-0.6,1c-0.1,0.4-0.2,0.8-0.2,1.3v5.8H151V13.2H152.6z"/>
	<path class="st0" d="M169.9,26.4c-0.8,0.8-2,1.3-3.6,1.3c-0.5,0-1-0.1-1.5-0.2c-0.5-0.1-1-0.3-1.4-0.5c-0.4-0.2-0.7-0.6-1-0.9
		c-0.3-0.4-0.4-0.9-0.4-1.4h1.7c0,0.3,0.1,0.6,0.3,0.8s0.4,0.4,0.7,0.5c0.3,0.1,0.5,0.2,0.8,0.3c0.3,0.1,0.6,0.1,0.9,0.1
		c0.6,0,1-0.1,1.4-0.3c0.4-0.2,0.7-0.5,1-0.8c0.3-0.3,0.4-0.8,0.6-1.2c0.1-0.5,0.2-1,0.2-1.6v-0.7h0c-0.3,0.6-0.7,1.1-1.3,1.4
		c-0.6,0.3-1.2,0.4-1.9,0.4c-0.8,0-1.4-0.1-2-0.4c-0.6-0.3-1.1-0.7-1.4-1.1c-0.4-0.5-0.7-1-0.9-1.7c-0.2-0.6-0.3-1.3-0.3-2
		c0-0.6,0.1-1.2,0.2-1.9c0.2-0.6,0.4-1.2,0.8-1.8c0.4-0.5,0.9-1,1.5-1.3s1.4-0.5,2.3-0.5c0.7,0,1.3,0.1,1.8,0.4
		c0.5,0.3,1,0.7,1.3,1.3h0v-1.5h1.6v9.5C171,24.3,170.7,25.6,169.9,26.4z M167.7,21.8c0.4-0.2,0.7-0.5,1-0.9
		c0.2-0.4,0.4-0.8,0.5-1.3c0.1-0.5,0.2-1,0.2-1.4c0-0.5-0.1-0.9-0.2-1.3c-0.1-0.4-0.3-0.8-0.5-1.2c-0.2-0.4-0.5-0.6-0.9-0.8
		c-0.4-0.2-0.8-0.3-1.4-0.3c-0.5,0-1,0.1-1.4,0.3c-0.4,0.2-0.7,0.5-1,0.8c-0.2,0.3-0.4,0.7-0.5,1.2c-0.1,0.5-0.2,0.9-0.2,1.4
		c0,0.5,0,0.9,0.1,1.4c0.1,0.5,0.3,0.9,0.5,1.3c0.2,0.4,0.5,0.7,0.9,0.9c0.4,0.2,0.8,0.4,1.4,0.4C166.8,22.1,167.3,22,167.7,21.8z"
		/>
</g>
<g class="st1">
	<path class="st0" d="M98.4,33.2v14.3h-1.9V33.2H98.4z"/>
	<path class="st0" d="M103,37.2v1.6h0c0.7-1.3,1.8-1.9,3.4-1.9c0.7,0,1.2,0.1,1.7,0.3s0.8,0.4,1.1,0.8c0.3,0.3,0.5,0.7,0.6,1.2
		s0.2,1,0.2,1.5v6.8h-1.7v-7c0-0.6-0.2-1.1-0.6-1.5c-0.4-0.4-0.9-0.6-1.5-0.6c-0.5,0-1,0.1-1.4,0.2s-0.7,0.4-0.9,0.7
		c-0.3,0.3-0.4,0.6-0.6,1c-0.1,0.4-0.2,0.8-0.2,1.3v5.8h-1.7V37.2H103z"/>
	<path class="st0" d="M113.8,45.2c0.2,0.3,0.4,0.5,0.6,0.6c0.3,0.2,0.6,0.3,0.9,0.3c0.3,0.1,0.7,0.1,1,0.1c0.3,0,0.5,0,0.8-0.1
		s0.6-0.1,0.8-0.2c0.2-0.1,0.5-0.3,0.6-0.5c0.2-0.2,0.2-0.5,0.2-0.8c0-0.4-0.2-0.8-0.5-1s-0.8-0.4-1.2-0.5c-0.5-0.1-1-0.3-1.6-0.4
		c-0.6-0.1-1.1-0.3-1.6-0.5s-0.9-0.5-1.2-0.9c-0.3-0.4-0.5-0.9-0.5-1.6c0-0.5,0.1-1,0.3-1.3c0.2-0.4,0.5-0.7,0.9-0.9
		c0.4-0.2,0.8-0.4,1.2-0.5s0.9-0.2,1.4-0.2c0.6,0,1.1,0,1.6,0.2c0.5,0.1,0.9,0.3,1.3,0.5c0.4,0.2,0.7,0.6,0.9,1
		c0.2,0.4,0.4,0.9,0.4,1.6h-1.7c0-0.3-0.1-0.6-0.3-0.8s-0.3-0.4-0.6-0.5c-0.2-0.1-0.5-0.2-0.8-0.3c-0.3-0.1-0.5-0.1-0.8-0.1
		c-0.3,0-0.5,0-0.8,0.1c-0.3,0-0.5,0.1-0.7,0.2c-0.2,0.1-0.4,0.2-0.5,0.4c-0.1,0.2-0.2,0.4-0.2,0.7c0,0.3,0.1,0.5,0.3,0.7
		c0.2,0.2,0.5,0.4,0.8,0.5c0.3,0.1,0.7,0.2,1.1,0.3c0.4,0.1,0.8,0.2,1.2,0.3c0.4,0.1,0.8,0.2,1.2,0.3c0.4,0.1,0.8,0.3,1.1,0.5
		s0.6,0.5,0.8,0.8s0.3,0.7,0.3,1.2c0,0.6-0.1,1.1-0.4,1.6s-0.6,0.7-1,1c-0.4,0.3-0.9,0.4-1.4,0.5c-0.5,0.1-1,0.1-1.6,0.1
		c-0.6,0-1.1-0.1-1.6-0.2c-0.5-0.1-1-0.3-1.4-0.6c-0.4-0.3-0.7-0.6-1-1.1s-0.4-1-0.4-1.6h1.7C113.5,44.6,113.6,45,113.8,45.2z"/>
	<path class="st0" d="M124.2,37.2v1.4h0c0.3-0.6,0.7-1,1.3-1.2c0.6-0.3,1.3-0.4,2-0.4c0.8,0,1.5,0.1,2.1,0.4
		c0.6,0.3,1.1,0.7,1.5,1.2c0.4,0.5,0.7,1.1,0.9,1.7s0.3,1.3,0.3,2.1s-0.1,1.4-0.3,2.1s-0.5,1.2-0.9,1.7c-0.4,0.5-0.9,0.9-1.5,1.1
		c-0.6,0.3-1.3,0.4-2.1,0.4c-0.3,0-0.5,0-0.9-0.1c-0.3-0.1-0.6-0.1-0.9-0.3s-0.6-0.3-0.9-0.5c-0.3-0.2-0.5-0.5-0.7-0.8h0v5.3h-1.7
		V37.2H124.2z M130.4,40.9c-0.1-0.5-0.3-0.9-0.6-1.2c-0.3-0.4-0.6-0.6-1-0.9c-0.4-0.2-0.9-0.3-1.4-0.3c-0.6,0-1.1,0.1-1.5,0.3
		c-0.4,0.2-0.7,0.5-1,0.9c-0.3,0.4-0.4,0.8-0.6,1.2s-0.2,0.9-0.2,1.4c0,0.5,0.1,1,0.2,1.5c0.1,0.5,0.3,0.9,0.6,1.2
		c0.3,0.4,0.6,0.7,1,0.9c0.4,0.2,0.9,0.3,1.5,0.3c0.6,0,1.1-0.1,1.5-0.3c0.4-0.2,0.7-0.5,1-0.9c0.2-0.4,0.4-0.8,0.5-1.3
		c0.1-0.5,0.2-1,0.2-1.5C130.5,41.8,130.5,41.3,130.4,40.9z"/>
	<path class="st0" d="M141.7,46.9c-0.8,0.6-1.7,0.9-2.9,0.9c-0.8,0-1.5-0.1-2.2-0.4s-1.1-0.6-1.5-1.1c-0.4-0.5-0.7-1.1-0.9-1.7
		c-0.2-0.7-0.3-1.4-0.3-2.2c0-0.8,0.1-1.5,0.4-2.2c0.2-0.7,0.6-1.2,1-1.7c0.4-0.5,0.9-0.9,1.5-1.1c0.6-0.3,1.2-0.4,2-0.4
		c0.9,0,1.7,0.2,2.3,0.6s1.1,0.9,1.5,1.5s0.6,1.2,0.8,1.9c0.1,0.7,0.2,1.4,0.2,2h-7.7c0,0.5,0,0.9,0.2,1.3c0.1,0.4,0.3,0.8,0.6,1.1
		s0.6,0.6,1,0.8s0.9,0.3,1.5,0.3c0.7,0,1.3-0.2,1.8-0.5c0.5-0.3,0.8-0.8,0.9-1.5h1.7C142.9,45.4,142.4,46.3,141.7,46.9z M141.3,40.2
		c-0.2-0.4-0.4-0.7-0.6-0.9c-0.3-0.3-0.6-0.5-0.9-0.6c-0.4-0.2-0.7-0.2-1.2-0.2c-0.4,0-0.8,0.1-1.2,0.2s-0.7,0.4-0.9,0.6
		c-0.3,0.3-0.5,0.6-0.6,0.9s-0.2,0.7-0.3,1.1h5.9C141.5,41,141.4,40.6,141.3,40.2z"/>
	<path class="st0" d="M151.3,39c-0.4-0.4-1-0.5-1.7-0.5c-0.6,0-1.1,0.1-1.5,0.3c-0.4,0.2-0.7,0.5-1,0.9c-0.2,0.4-0.4,0.8-0.5,1.3
		s-0.2,1-0.2,1.5c0,0.5,0.1,0.9,0.2,1.4s0.3,0.9,0.5,1.2s0.6,0.6,0.9,0.8c0.4,0.2,0.8,0.3,1.4,0.3c0.8,0,1.5-0.2,2-0.7
		c0.5-0.4,0.8-1.1,0.9-1.9h1.7c-0.2,1.3-0.7,2.3-1.4,3c-0.8,0.7-1.8,1-3.1,1c-0.8,0-1.5-0.1-2.1-0.4s-1.1-0.6-1.5-1.1
		c-0.4-0.5-0.7-1-0.9-1.7c-0.2-0.6-0.3-1.4-0.3-2.1s0.1-1.5,0.3-2.2c0.2-0.7,0.5-1.3,0.9-1.8c0.4-0.5,0.9-0.9,1.5-1.2
		c0.6-0.3,1.3-0.4,2.1-0.4c0.6,0,1.1,0.1,1.7,0.2c0.5,0.1,1,0.4,1.4,0.7c0.4,0.3,0.7,0.7,1,1.1c0.3,0.4,0.4,1,0.5,1.6h-1.8
		C152,39.9,151.7,39.3,151.3,39z"/>
	<path class="st0" d="M160.2,37.2v1.5h-2.1v6.4c0,0.2,0,0.4,0,0.5c0,0.1,0.1,0.2,0.2,0.3c0.1,0.1,0.2,0.1,0.4,0.1c0.2,0,0.4,0,0.6,0
		h0.8v1.5h-1.3c-0.4,0-0.8,0-1.1-0.1c-0.3-0.1-0.6-0.2-0.8-0.3s-0.3-0.4-0.4-0.7c-0.1-0.3-0.1-0.7-0.1-1.2v-6.6h-1.8v-1.5h1.8v-3.1
		h1.7v3.1H160.2z"/>
	<path class="st0" d="M161.9,40.2c0.2-0.7,0.5-1.2,1-1.7s1-0.9,1.6-1.2c0.6-0.3,1.3-0.4,2.2-0.4c0.8,0,1.5,0.1,2.2,0.4
		c0.6,0.3,1.1,0.7,1.6,1.2s0.7,1.1,1,1.7c0.2,0.7,0.3,1.4,0.3,2.1s-0.1,1.5-0.3,2.1c-0.2,0.7-0.5,1.2-1,1.7c-0.4,0.5-1,0.9-1.6,1.1
		c-0.6,0.3-1.3,0.4-2.2,0.4c-0.8,0-1.5-0.1-2.2-0.4c-0.6-0.3-1.2-0.7-1.6-1.1c-0.4-0.5-0.7-1.1-1-1.7c-0.2-0.7-0.3-1.4-0.3-2.1
		S161.7,40.9,161.9,40.2z M163.6,44c0.2,0.5,0.4,0.9,0.7,1.2c0.3,0.3,0.6,0.6,1,0.8c0.4,0.2,0.8,0.3,1.2,0.3c0.4,0,0.9-0.1,1.2-0.3
		c0.4-0.2,0.7-0.4,1-0.8c0.3-0.3,0.5-0.7,0.7-1.2c0.2-0.5,0.2-1,0.2-1.7c0-0.6-0.1-1.2-0.2-1.7c-0.2-0.5-0.4-0.9-0.7-1.2
		c-0.3-0.3-0.6-0.6-1-0.8c-0.4-0.2-0.8-0.3-1.2-0.3c-0.4,0-0.9,0.1-1.2,0.3c-0.4,0.2-0.7,0.4-1,0.8c-0.3,0.3-0.5,0.7-0.7,1.2
		c-0.2,0.5-0.2,1-0.2,1.7C163.4,43,163.4,43.5,163.6,44z"/>
	<path class="st0" d="M175.1,37.2v2.2h0c0.4-0.8,0.9-1.5,1.5-1.9c0.6-0.4,1.4-0.6,2.3-0.6v1.8c-0.7,0-1.3,0.1-1.7,0.3
		c-0.5,0.2-0.9,0.5-1.2,0.8c-0.3,0.4-0.5,0.8-0.6,1.3c-0.1,0.5-0.2,1.1-0.2,1.8v4.6h-1.7V37.2H175.1z"/>
	<path class="st0" d="M189.4,47.5c-0.3,0.2-0.7,0.3-1.2,0.3c-0.4,0-0.8-0.1-1-0.4c-0.3-0.2-0.4-0.6-0.4-1.2c-0.5,0.6-1,1-1.6,1.2
		c-0.6,0.2-1.3,0.4-2,0.4c-0.5,0-0.9-0.1-1.3-0.2c-0.4-0.1-0.8-0.3-1.1-0.5c-0.3-0.2-0.5-0.5-0.7-0.9c-0.2-0.4-0.3-0.8-0.3-1.3
		c0-0.6,0.1-1.1,0.3-1.4s0.5-0.7,0.8-0.9s0.7-0.4,1.1-0.5s0.8-0.2,1.3-0.3c0.5-0.1,0.9-0.2,1.3-0.2s0.8-0.1,1.1-0.2
		c0.3-0.1,0.6-0.2,0.8-0.4c0.2-0.2,0.3-0.4,0.3-0.7c0-0.4-0.1-0.7-0.2-0.9c-0.1-0.2-0.3-0.4-0.5-0.5c-0.2-0.1-0.5-0.2-0.7-0.2
		c-0.3,0-0.5-0.1-0.8-0.1c-0.7,0-1.3,0.1-1.8,0.4c-0.5,0.3-0.7,0.8-0.8,1.5h-1.7c0-0.6,0.2-1.2,0.4-1.6c0.2-0.4,0.6-0.8,1-1.1
		c0.4-0.3,0.9-0.5,1.4-0.6c0.5-0.1,1.1-0.2,1.7-0.2c0.5,0,0.9,0,1.4,0.1c0.5,0.1,0.9,0.2,1.2,0.4c0.4,0.2,0.7,0.5,0.9,0.9
		c0.2,0.4,0.3,0.9,0.3,1.5v5.3c0,0.4,0,0.7,0.1,0.9c0,0.2,0.2,0.3,0.5,0.3c0.1,0,0.3,0,0.5-0.1V47.5z M186.7,42.2
		c-0.2,0.2-0.5,0.3-0.8,0.3s-0.7,0.1-1.1,0.2c-0.4,0-0.8,0.1-1.2,0.2s-0.7,0.2-1,0.3c-0.3,0.1-0.6,0.3-0.8,0.6
		c-0.2,0.2-0.3,0.6-0.3,1c0,0.3,0.1,0.5,0.2,0.7s0.3,0.3,0.4,0.5s0.4,0.2,0.6,0.3s0.5,0.1,0.8,0.1c0.6,0,1-0.1,1.4-0.2
		c0.4-0.2,0.7-0.3,1-0.6c0.3-0.2,0.4-0.5,0.6-0.8c0.1-0.3,0.2-0.5,0.2-0.8V42.2z"/>
	<path class="st0" d="M195.4,37.2v1.5h-2.1v6.4c0,0.2,0,0.4,0,0.5c0,0.1,0.1,0.2,0.2,0.3c0.1,0.1,0.2,0.1,0.4,0.1c0.2,0,0.4,0,0.7,0
		h0.8v1.5h-1.3c-0.4,0-0.8,0-1.1-0.1c-0.3-0.1-0.6-0.2-0.8-0.3s-0.3-0.4-0.4-0.7c-0.1-0.3-0.1-0.7-0.1-1.2v-6.6h-1.8v-1.5h1.8v-3.1
		h1.7v3.1H195.4z"/>
	<path class="st0" d="M204.6,46.9c-0.8,0.6-1.7,0.9-2.9,0.9c-0.8,0-1.5-0.1-2.2-0.4s-1.1-0.6-1.5-1.1c-0.4-0.5-0.7-1.1-0.9-1.7
		c-0.2-0.7-0.3-1.4-0.3-2.2c0-0.8,0.1-1.5,0.4-2.2c0.2-0.7,0.6-1.2,1-1.7c0.4-0.5,0.9-0.9,1.5-1.1c0.6-0.3,1.2-0.4,2-0.4
		c0.9,0,1.7,0.2,2.3,0.6s1.1,0.9,1.5,1.5s0.6,1.2,0.8,1.9c0.1,0.7,0.2,1.4,0.2,2h-7.7c0,0.5,0,0.9,0.2,1.3c0.1,0.4,0.3,0.8,0.6,1.1
		s0.6,0.6,1,0.8s0.9,0.3,1.5,0.3c0.7,0,1.3-0.2,1.8-0.5c0.5-0.3,0.8-0.8,0.9-1.5h1.7C205.9,45.4,205.4,46.3,204.6,46.9z M204.2,40.2
		c-0.2-0.4-0.4-0.7-0.6-0.9c-0.3-0.3-0.6-0.5-0.9-0.6c-0.4-0.2-0.7-0.2-1.2-0.2c-0.4,0-0.8,0.1-1.2,0.2s-0.7,0.4-0.9,0.6
		c-0.3,0.3-0.5,0.6-0.6,0.9s-0.2,0.7-0.3,1.1h5.9C204.5,41,204.4,40.6,204.2,40.2z"/>
</g>
<g id="Rectangle_88">
	<rect x="79.7" y="0.5" class="st0" width="3" height="55"/>
</g>
</svg>
